<?xml version="1.0" standalone="no"?>
<!DOCTYPE svg PUBLIC "-//W3C//DTD SVG 1.1//EN" "http://www.w3.org/Graphics/SVG/1.1/DTD/svg11.dtd" >
<svg xmlns="http://www.w3.org/2000/svg" xmlns:xlink="http://www.w3.org/1999/xlink" version="1.1">
<metadata>
Created by FontForge 20170731 at Sun May 29 04:57:18 2022
 By Aleksey,,,
Copyright (c) 2015 The Monotype Corporation. All rights reserved.
</metadata>
<defs>
<font id="GrotesqueMTStd-Bold" horiz-adv-x="1323" >
  <font-face 
    font-family="Grotesque MT Std"
    font-weight="700"
    font-stretch="normal"
    units-per-em="2048"
    panose-1="2 11 8 4 2 2 2 2 2 4"
    ascent="1477"
    descent="-571"
    x-height="1014"
    cap-height="1477"
    bbox="-451 -512 2255 1925"
    underline-thickness="102"
    underline-position="-307"
    unicode-range="U+000D-FB02"
  />
<missing-glyph horiz-adv-x="1024" 
d="M0 1434h1024v-1434h-1024v1434zM164 1331l348 -522l348 522h-696zM102 1239v-1044l349 522zM922 195v1044l-349 -522zM860 102l-348 523l-348 -523h696z" />
    <glyph glyph-name="f_i" unicode="fi" 
d="M1163 1194h-295q-23 98 -172 98q-114 0 -155 -52.5t-41 -170.5v-55h229v-207h-229v-807h-291v807h-174v207h174v114q0 167 132.5 277.5t344.5 110.5q216 0 335 -78.5t142 -243.5zM868 1014h289v-1014h-289v1014z" />
    <glyph glyph-name="f_l" unicode="fl" 
d="M973 1477h188v-1477h-287v1155q0 69 -38 103t-127 34q-115 0 -161 -45.5t-46 -171.5v-61h227v-205h-227v-809h-291v809h-174v205h174v35q0 132 32 212t93 140q123 117 360 117q76 0 141.5 -10t100 -20.5t35.5 -10.5z" />
    <glyph glyph-name=".notdef" horiz-adv-x="1024" 
d="M0 1434h1024v-1434h-1024v1434zM164 1331l348 -522l348 522h-696zM102 1239v-1044l349 522zM922 195v1044l-349 -522zM860 102l-348 523l-348 -523h696z" />
    <glyph glyph-name=".null" horiz-adv-x="0" 
 />
    <glyph glyph-name="nonmarkingreturn" horiz-adv-x="682" 
 />
    <glyph glyph-name="NULL" horiz-adv-x="0" 
 />
    <glyph glyph-name="NULL" horiz-adv-x="0" 
 />
    <glyph glyph-name="CR" unicode="&#xd;" horiz-adv-x="491" 
 />
    <glyph glyph-name="space" unicode=" " horiz-adv-x="491" 
 />
    <glyph glyph-name="exclam" unicode="!" horiz-adv-x="661" 
d="M182 1477h291l-35 -1008h-213zM182 307h297v-307h-297v307z" />
    <glyph glyph-name="quotedbl" unicode="&#x22;" horiz-adv-x="1087" 
d="M145 1477h297v-295l-61 -324h-174l-62 324v295zM645 1477h297v-295l-61 -324h-174l-62 324v295z" />
    <glyph glyph-name="numbersign" unicode="#" horiz-adv-x="1368" 
d="M471 1401h188l-84 -383h355l82 383h190l-82 -383h168v-191h-205l-63 -303h268v-188h-303l-84 -379h-188l82 379h-359l-78 -379h-190l80 379h-170v188h209l63 303h-272v191h309zM895 827h-356l-62 -301h354z" />
    <glyph glyph-name="dollar" unicode="$" horiz-adv-x="1216" 
d="M522 1495h201v-96q195 -42 293.5 -131t111.5 -269h-245q-13 102 -47 147.5t-113 70.5v-390l70 -28q180 -73 256.5 -176t76.5 -242q0 -165 -109.5 -276.5t-293.5 -131.5v-211h-201v209q-213 24 -321 133t-113 289h248q11 -98 55.5 -152t130.5 -71v438
q-199 69 -285.5 165.5t-86.5 246.5q0 63 23.5 124t68 114t117.5 90t163 47v100zM522 899v320q-73 -13 -110 -54.5t-37 -105.5q0 -56 34 -92.5t113 -67.5zM723 537v-375q84 13 129 62.5t45 125.5q0 66 -40.5 108.5t-133.5 78.5z" />
    <glyph glyph-name="percent" unicode="%" horiz-adv-x="1748" 
d="M1133 1513h184l-696 -1593h-187zM748 1122q0 -175 -86 -283t-230 -108q-139 0 -225 107.5t-86 283.5q0 172 86 280.5t225 108.5q143 0 229.5 -106t86.5 -283zM1630 315q0 -179 -85.5 -286t-225.5 -107q-139 0 -226 107t-87 276q0 179 86.5 288t226.5 109t225.5 -105.5
t85.5 -281.5zM498 1038v179q0 60 -13.5 88t-52.5 28q-61 0 -61 -116v-179q0 -70 14.5 -101.5t46.5 -31.5q40 0 53 29.5t13 103.5zM1382 229v183q0 61 -13 88.5t-52 27.5q-62 0 -62 -116v-183q0 -70 14.5 -100.5t47.5 -30.5q40 0 52.5 28.5t12.5 102.5z" />
    <glyph glyph-name="ampersand" unicode="&#x26;" horiz-adv-x="1642" 
d="M1198 1165q0 -116 -79.5 -208t-229.5 -156q99 -209 196 -340q72 86 164 262l228 -98q-51 -113 -98.5 -193.5t-114.5 -167.5q57 -57 168 -57q36 0 100 10l31 -240q-119 -28 -232 -28q-95 0 -164.5 23.5t-130.5 78.5q-156 -102 -346 -102q-231 0 -379.5 133.5t-148.5 343.5
q0 150 86.5 258t271.5 182q-74 157 -74 281q0 164 103 262t274 98q168 0 271.5 -94.5t103.5 -247.5zM788 1001q142 63 142 175q0 62 -31 104.5t-80 42.5q-37 0 -63.5 -32t-26.5 -81q0 -82 59 -209zM711 190q69 0 159 50q-58 73 -135.5 200t-113.5 209q-47 -36 -73.5 -61
t-50.5 -68t-24 -90q0 -100 70 -170t168 -70z" />
    <glyph glyph-name="quotesingle" unicode="'" horiz-adv-x="661" 
d="M182 1477h297v-295l-61 -324h-174l-62 324v295z" />
    <glyph glyph-name="parenleft" unicode="(" horiz-adv-x="768" 
d="M672 1524v-262q-98 -63 -155.5 -146.5t-87.5 -219t-30 -337.5q0 -261 61.5 -424.5t209.5 -257.5v-262q-574 193 -574 983q0 157 31 293.5t84.5 238t128 182t157 131.5t175.5 81z" />
    <glyph glyph-name="parenright" unicode=")" horiz-adv-x="768" 
d="M96 -385v262q98 63 155.5 146.5t87.5 219t30 337.5q0 261 -61.5 424.5t-209.5 257.5v262q574 -193 574 -983q0 -157 -31 -293.5t-84.5 -238t-128 -182t-157 -131.5t-175.5 -81z" />
    <glyph glyph-name="asterisk" unicode="*" horiz-adv-x="980" 
d="M182 1397l201 114l111 -368l114 368l197 -116l-262 -281l372 94v-231l-376 84l264 -281l-203 -114l-106 366l-111 -364l-205 118l268 277l-380 -88v231l376 -88z" />
    <glyph glyph-name="plus" unicode="+" horiz-adv-x="1366" 
d="M575 1235h216v-451h450v-215h-450v-450h-216v450h-450v215h450v451z" />
    <glyph glyph-name="comma" unicode="," horiz-adv-x="661" 
d="M180 307h301v-307q0 -239 -186 -387l-109 82q54 72 79 143t30 162h-115v307z" />
    <glyph glyph-name="hyphen" unicode="-" horiz-adv-x="768" 
d="M98 643h572v-293h-572v293z" />
    <glyph glyph-name="period" unicode="." horiz-adv-x="661" 
d="M180 307h301v-307h-301v307z" />
    <glyph glyph-name="slash" unicode="/" horiz-adv-x="768" 
d="M508 1530h219l-465 -1919h-219z" />
    <glyph glyph-name="zero" unicode="0" horiz-adv-x="980" 
d="M938 748q0 -516 -201 -693q-101 -88 -237 -88q-154 0 -252 88q-107 96 -156 259t-49 458q0 455 178 619q111 102 264 102q69 0 137.5 -26.5t120.5 -75.5q97 -92 146 -239t49 -404zM358 1063v-662q0 -89 36.5 -151t92.5 -62q62 0 98 52t36 139v708q0 82 -37 133.5
t-101 51.5q-58 0 -91.5 -55t-33.5 -154z" />
    <glyph glyph-name="one" unicode="1" horiz-adv-x="980" 
d="M481 1491h262v-1491h-323v1059q-121 -109 -264 -182v301q96 54 167.5 124t157.5 189z" />
    <glyph glyph-name="two" unicode="2" horiz-adv-x="980" 
d="M928 1032q0 -75 -15 -132t-52.5 -110t-85.5 -97t-128 -105q-32 -25 -87.5 -66t-76.5 -57t-55.5 -45.5t-51 -49t-36 -47t-35.5 -59.5h635v-264h-899v29q0 139 32.5 234t98.5 179q58 73 199 201q146 133 190.5 205.5t44.5 175.5q0 105 -36 161t-103 56q-52 0 -86.5 -37
t-34.5 -96q0 -39 14 -94l-276 -111q-2 10 -10 48.5t-11.5 65t-3.5 58.5q0 184 113 300t293 116q94 0 189.5 -32t158.5 -97q56 -58 85.5 -135.5t29.5 -194.5z" />
    <glyph glyph-name="three" unicode="3" horiz-adv-x="980" 
d="M899 1128q0 -115 -59 -200t-205 -146q295 -49 295 -387q0 -197 -115 -312.5t-313 -115.5q-208 0 -328.5 105t-120.5 284q0 47 13 127l276 -73q-4 -66 -4 -80q0 -85 33 -129.5t96 -44.5q133 0 133 209q0 51 -1.5 84t-7 70t-16.5 59.5t-30 45t-46 34.5t-66.5 19t-90.5 7
v199q95 0 141.5 18t64 60.5t17.5 130.5q0 119 -23.5 163.5t-88.5 44.5q-54 0 -77.5 -42t-23.5 -134v-26l-276 -56q-6 44 -6 82q0 166 112 266.5t297 100.5q188 0 304 -100t116 -263z" />
    <glyph glyph-name="four" unicode="4" horiz-adv-x="980" 
d="M535 1491h268v-965h147v-223h-147v-303h-305v303h-467v291zM498 1040l-289 -514h289v514z" />
    <glyph glyph-name="five" unicode="5" horiz-adv-x="980" 
d="M135 1477h705v-250h-500l-23 -320q87 84 222 84q170 0 281.5 -132.5t111.5 -348.5q0 -255 -120.5 -399t-338.5 -144q-196 0 -306 100.5t-118 284.5l254 60q8 -107 42 -153t112 -46q84 0 117.5 61t33.5 205q0 177 -33 241t-120 64q-53 0 -90 -30t-74 -97l-211 56z" />
    <glyph glyph-name="six" unicode="6" horiz-adv-x="980" 
d="M926 1149l-279 -33q-7 105 -37.5 150t-91.5 45q-33 0 -58 -14t-41.5 -37t-28 -59t-17.5 -73t-9.5 -86t-4.5 -91t-1 -94v-17q103 139 242 139q158 0 250 -135t92 -363q0 -233 -113 -373.5t-299 -140.5q-165 0 -274 90q-117 95 -167 245.5t-50 416.5q0 434 133 606
q129 166 369 166q163 0 263.5 -86.5t121.5 -255.5zM485 158q77 0 110.5 80t33.5 254q0 135 -28 193t-95 58q-79 0 -113.5 -68.5t-34.5 -223.5q0 -158 29 -225.5t98 -67.5z" />
    <glyph glyph-name="seven" unicode="7" horiz-adv-x="980" 
d="M45 1485h891v-223q-109 -158 -193 -443q-101 -331 -114 -819h-326q47 345 111 553q54 180 121.5 333.5t171.5 338.5h-662v260z" />
    <glyph glyph-name="eight" unicode="8" horiz-adv-x="980" 
d="M934 1133q0 -113 -53 -199t-183 -148q244 -100 244 -383q0 -189 -123 -312.5t-313 -123.5q-208 0 -336.5 119t-128.5 313q0 288 258 392q-105 45 -167 131t-62 194q0 168 119.5 271.5t304.5 103.5q195 0 317.5 -99t122.5 -259zM496 874q66 0 96.5 52t30.5 168
q0 108 -29 159.5t-94 51.5q-63 0 -92 -56t-29 -174q0 -106 27 -153.5t90 -47.5zM489 154q68 0 101 61t33 191q0 151 -26 212.5t-97 61.5q-77 0 -108.5 -59.5t-31.5 -196.5q0 -140 31.5 -205t97.5 -65z" />
    <glyph glyph-name="nine" unicode="9" horiz-adv-x="980" 
d="M940 754q0 -413 -119.5 -600t-382.5 -187q-172 0 -273 89.5t-118 258.5l270 21q12 -99 46 -145t96 -46q52 0 85 27.5t52.5 104t19.5 206.5v135q-61 -74 -122 -107.5t-134 -33.5q-150 0 -234.5 133.5t-84.5 356.5q0 116 34 215.5t91 166.5t132.5 104.5t158.5 37.5
q102 0 187.5 -42.5t152.5 -129t105 -231t38 -334.5zM485 702q133 0 133 291q0 153 -31.5 222t-103.5 69q-63 0 -93 -73t-30 -248q0 -146 28 -203.5t97 -57.5z" />
    <glyph glyph-name="colon" unicode=":" horiz-adv-x="661" 
d="M180 1014h303v-307h-303v307zM182 307h301v-307h-301v307z" />
    <glyph glyph-name="semicolon" unicode=";" horiz-adv-x="661" 
d="M180 1014h301v-307h-301v307zM180 307h301v-307q0 -239 -186 -387l-109 82q54 72 79 143t30 162h-115v307z" />
    <glyph glyph-name="less" unicode="&#x3c;" horiz-adv-x="1366" 
d="M1239 1237v-231l-819 -330l819 -328v-233l-1112 465v192z" />
    <glyph glyph-name="equal" unicode="=" horiz-adv-x="1366" 
d="M127 1022h1112v-215h-1112v215zM127 547h1112v-215h-1112v215z" />
    <glyph glyph-name="greater" unicode="&#x3e;" horiz-adv-x="1366" 
d="M127 1006v231l1112 -463v-194l-1112 -465v233l819 328z" />
    <glyph glyph-name="question" unicode="?" horiz-adv-x="1216" 
d="M1077 1153q0 -175 -129 -301q-29 -29 -75.5 -66t-77.5 -63t-62 -61t-47 -77t-16 -93v-21h-213q2 130 32 206t115 154q88 81 122 141.5t34 151.5q0 205 -170 205q-176 0 -176 -227q0 -38 10 -109l-285 113q14 193 133 301q114 100 328 100q216 0 346.5 -98.5t130.5 -255.5
zM418 307h291v-307h-291v307z" />
    <glyph glyph-name="at" unicode="@" horiz-adv-x="1996" 
d="M1911 743q0 -144 -53 -277t-142 -230t-211 -155t-254 -58q-83 0 -127 26.5t-57 87.5q-114 -114 -270 -114q-174 0 -279.5 117.5t-105.5 310.5q0 86 22.5 176.5t69 176t109.5 153t151.5 108.5t187.5 41q178 0 265 -135l24 110h262l-131 -626q-33 -158 -33 -181
q0 -21 10.5 -34t28.5 -13q58 0 148 78q93 80 149 199.5t56 249.5q0 261 -186 419t-490 158q-308 0 -518 -149q-144 -103 -232 -289.5t-88 -400.5q0 -330 226 -523.5t620 -193.5q241 0 410 65.5t278 200.5h213q-109 -220 -336 -334.5t-543 -114.5q-251 0 -449.5 64.5
t-330 183.5t-201 287.5t-69.5 376.5q0 162 42 311t127.5 276t206.5 221t287.5 147.5t360.5 53.5q191 0 351 -57.5t269.5 -159t170.5 -244t61 -309.5zM852 205q77 0 139 52t97.5 130t54 158t18.5 147q0 106 -50 170t-136 64q-91 0 -162.5 -72.5t-107 -183.5t-35.5 -234
q0 -106 48.5 -168.5t133.5 -62.5z" />
    <glyph glyph-name="A" unicode="A" horiz-adv-x="1748" 
d="M641 1477h461l532 -1477h-358l-98 285h-607l-98 -285h-358zM872 1165l-204 -596h411z" />
    <glyph glyph-name="B" unicode="B" horiz-adv-x="1642" 
d="M205 1477h772q238 0 362.5 -99.5t124.5 -257.5q0 -125 -83 -206.5t-271 -131.5q209 -39 309.5 -140.5t100.5 -254.5q0 -115 -69 -204.5t-181 -136t-246 -46.5h-819v1477zM567 903h338q105 0 162 41t57 121q0 68 -58.5 106.5t-154.5 38.5h-344v-307zM567 270h371
q95 0 149 44.5t54 129.5q0 95 -67 142t-193 47h-314v-363z" />
    <glyph glyph-name="C" unicode="C" horiz-adv-x="1642" 
d="M1524 1106l-295 -172q-64 145 -148 209.5t-204 64.5q-167 0 -262 -126.5t-95 -348.5q0 -225 99 -347t278 -122q224 0 360 252l287 -201q-106 -186 -265.5 -274t-379.5 -88q-346 0 -553 209.5t-207 562.5q0 174 52.5 320.5t145.5 249t225 159.5t288 57q249 0 422 -100
q78 -47 138 -116t114 -189z" />
    <glyph glyph-name="D" unicode="D" horiz-adv-x="1748" 
d="M223 1477h750q135 0 251.5 -51t202 -144t134.5 -233.5t49 -311.5q0 -347 -172 -542t-457 -195h-758v1477zM588 309h282q174 0 267.5 105.5t93.5 318.5t-87.5 325.5t-242.5 112.5h-313v-862z" />
    <glyph glyph-name="E" unicode="E" 
d="M182 1477h1024l-55 -271h-608v-307h561v-270h-561v-359h624l56 -270h-1041v1477z" />
    <glyph glyph-name="F" unicode="F" 
d="M182 1477h1041l-54 -267h-628v-350h559v-266h-557v-594h-361v1477z" />
    <glyph glyph-name="G" unicode="G" horiz-adv-x="1642" 
d="M1470 1221l-227 -226q-157 209 -354 209q-187 0 -276 -119t-89 -366q0 -459 350 -459q154 0 256 82v190h-313v263h678v-562q-94 -126 -262 -202t-342 -76q-214 0 -384 94.5t-266 266t-96 389.5q0 176 46.5 322t136.5 255t233.5 170t327.5 61q174 0 313 -64t268 -228z" />
    <glyph glyph-name="H" unicode="H" horiz-adv-x="1748" 
d="M193 1477h364v-576h641v576h358v-1477h-360v623h-643v-623h-360v1477z" />
    <glyph glyph-name="I" unicode="I" horiz-adv-x="768" 
d="M205 1477h360v-1477h-360v1477z" />
    <glyph glyph-name="J" unicode="J" 
d="M745 1477h365v-1039q0 -230 -126.5 -351.5t-381.5 -121.5q-512 0 -512 508v25l295 151q-1 -22 -3.5 -76t-2.5 -71q0 -149 47 -217t147 -68q172 0 172 219v1041z" />
    <glyph glyph-name="K" unicode="K" horiz-adv-x="1748" 
d="M203 1477h364v-621l619 621h446l-512 -500l551 -977h-397l-406 729l-305 -299v-430h-360v1477z" />
    <glyph glyph-name="L" unicode="L" 
d="M207 1477h360v-1182h674v-295h-1034v1477z" />
    <glyph glyph-name="M" unicode="M" horiz-adv-x="1878" 
d="M188 1477h521l229 -899l236 899h518v-1477h-299v1208l-316 -1208h-280l-312 1221v-1221h-297v1477z" />
    <glyph glyph-name="N" unicode="N" horiz-adv-x="1748" 
d="M227 1477h426l518 -867v867h349v-1477h-398l-547 920v-920h-348v1477z" />
    <glyph glyph-name="O" unicode="O" horiz-adv-x="1748" 
d="M1638 737q0 -175 -58.5 -323t-160 -248.5t-240.5 -156.5t-298 -56q-230 0 -405.5 97.5t-270 273t-94.5 403.5q0 191 62.5 344t168.5 248.5t239.5 146t282.5 50.5q165 0 306 -52.5t245 -150t163.5 -246t59.5 -330.5zM874 270q178 0 279.5 124t101.5 341
q0 216 -100.5 337.5t-282.5 121.5q-177 0 -277.5 -122t-100.5 -337q0 -217 101 -341t279 -124z" />
    <glyph glyph-name="P" unicode="P" horiz-adv-x="1642" 
d="M213 1477h717q84 0 165 -16t157 -52t133 -88.5t91.5 -131t34.5 -173.5q0 -191 -142 -327t-339 -136h-455v-553h-362v1477zM573 823h336q92 0 156.5 55t64.5 140q0 89 -58 138.5t-154 49.5h-345v-383z" />
    <glyph glyph-name="Q" unicode="Q" horiz-adv-x="1748" 
d="M1638 735q0 -300 -141 -485q-29 -38 -44 -55t-53.5 -51t-105.5 -85q37 -65 81.5 -109.5t111.5 -88.5l-242 -125q-107 85 -201 227q-71 -14 -167 -14q-224 0 -398 98.5t-270 277t-96 408.5q0 227 94.5 405t265 276.5t387.5 98.5q237 0 414.5 -99.5t270.5 -275.5t93 -403z
M866 268q-73 131 -157 211l204 105q62 -50 103.5 -104t85.5 -138q72 44 112.5 150.5t40.5 246.5q0 216 -102.5 336.5t-288.5 120.5q-165 0 -266.5 -126.5t-101.5 -340.5q0 -213 96 -334t274 -127z" />
    <glyph glyph-name="R" unicode="R" horiz-adv-x="1642" 
d="M190 1477h768q154 0 277 -50t195.5 -144.5t72.5 -217.5q0 -160 -88.5 -268t-249.5 -140l389 -657h-395l-366 610h-240v-610h-363v1477zM557 879h363q90 0 147 46t57 126q0 70 -57 114.5t-139 44.5h-371v-331z" />
    <glyph glyph-name="S" unicode="S" horiz-adv-x="1642" 
d="M1477 1212l-226 -190q-67 118 -164.5 172.5t-240.5 54.5q-145 0 -223 -41.5t-78 -115.5q0 -72 71 -105t275 -67q153 -25 262 -60t193 -90t125.5 -136t41.5 -190q0 -230 -164.5 -360.5t-476.5 -130.5q-146 0 -254 15.5t-202 53t-164 104t-125 165.5l238 213
q62 -152 174.5 -218.5t294.5 -66.5q163 0 247 43t84 125q0 78 -82.5 122t-265.5 66q-136 17 -246.5 52.5t-195.5 91t-131.5 136.5t-46.5 181q0 72 18 137t63.5 128t115 108.5t180.5 73.5t253 28q239 0 407.5 -78.5t242.5 -220.5z" />
    <glyph glyph-name="T" unicode="T" horiz-adv-x="1642" 
d="M98 1477h1448v-306h-545v-1171h-362v1171h-541v306z" />
    <glyph glyph-name="U" unicode="U" horiz-adv-x="1642" 
d="M188 1477h361v-930q0 -137 65.5 -210t198.5 -73q141 0 211 74t70 215v924h362v-1031q0 -237 -160 -364t-475 -127q-633 0 -633 491v1031z" />
    <glyph glyph-name="V" unicode="V" horiz-adv-x="1748" 
d="M109 1477h368l404 -1012l397 1012h364l-577 -1477h-365z" />
    <glyph glyph-name="W" unicode="W" horiz-adv-x="2197" 
d="M117 1477h338l225 -902l233 902h371l236 -914l225 914h338l-381 -1477h-359l-241 952l-244 -952h-362z" />
    <glyph glyph-name="X" unicode="X" horiz-adv-x="1642" 
d="M96 1477h381l334 -459l319 459h373l-502 -723l545 -754h-381l-350 483l-336 -483h-377l523 748z" />
    <glyph glyph-name="Y" unicode="Y" horiz-adv-x="1642" 
d="M92 1477h383l346 -607l353 607h378l-553 -916v-561h-360v563z" />
    <glyph glyph-name="Z" unicode="Z" 
d="M176 1477h1059v-185l-688 -1022h686v-270h-1145v178l698 1030h-610v269z" />
    <glyph glyph-name="bracketleft" unicode="[" horiz-adv-x="768" 
d="M98 1479h572v-152h-283v-1513h277v-152h-566v1817z" />
    <glyph glyph-name="backslash" unicode="\" horiz-adv-x="768" 
d="M41 1530h219l465 -1919h-219z" />
    <glyph glyph-name="bracketright" unicode="]" horiz-adv-x="768" 
d="M102 1479h566v-1813h-570v152h281v1509h-277v152z" />
    <glyph glyph-name="asciicircum" unicode="^" horiz-adv-x="1196" 
d="M492 1491h223l366 -799h-284l-199 490l-197 -490h-286z" />
    <glyph glyph-name="underscore" unicode="_" horiz-adv-x="1024" 
d="M0 -154h1024v-102h-1024v102z" />
    <glyph glyph-name="grave" unicode="`" horiz-adv-x="681" 
d="M33 1415h315l137 -299h-178z" />
    <glyph glyph-name="a" unicode="a" horiz-adv-x="1216" 
d="M1038 717v-426q0 -43 21 -67.5t59 -24.5q13 0 41 4v-187q-80 -41 -190 -41q-100 0 -150 45t-69 142q-60 -100 -136 -144.5t-186 -44.5q-148 0 -238 87t-90 229q0 94 37 158t111 110q53 32 122.5 48.5t126.5 19.5t126 15t120 36v31q0 157 -168 157q-133 0 -194 -131
l-223 103q50 107 151 155.5t281 48.5q246 0 347 -69t101 -254zM541 166q86 0 144 59.5t58 139.5v188q-44 -30 -147 -53q-104 -24 -148.5 -67.5t-44.5 -125.5q0 -66 37.5 -103.5t100.5 -37.5z" />
    <glyph glyph-name="b" unicode="b" 
d="M184 1477h291v-613q82 101 159.5 139.5t164.5 38.5q195 0 308.5 -140.5t113.5 -379.5q0 -243 -116 -396t-300 -153q-102 0 -180 42t-150 147v-162h-291v1477zM475 670v-351q35 -73 100 -118t132 -45q44 0 77.5 14.5t62.5 50t44.5 105t15.5 170.5q0 131 -15.5 200.5
t-51.5 108.5q-54 57 -135 57q-75 0 -136.5 -50t-93.5 -142z" />
    <glyph glyph-name="c" unicode="c" horiz-adv-x="1216" 
d="M1073 774l-233 -125q-31 96 -79 137t-128 41q-102 0 -155.5 -80t-53.5 -227q0 -332 217 -332q81 0 134 46t91 149l232 -127q-63 -151 -177 -218t-284 -67q-250 0 -384 144.5t-134 410.5q0 161 65 279q68 121 173 179t278 58q170 0 273 -63.5t165 -204.5z" />
    <glyph glyph-name="d" unicode="d" 
d="M864 1477h293v-1477h-289v143q-56 -90 -134.5 -130t-192.5 -40q-89 0 -160.5 30.5t-118.5 83t-78.5 125.5t-45 154t-13.5 173q0 221 120 361t308 140q102 0 172 -38t139 -130v605zM641 156q71 0 124 35t103 114v406q-36 73 -96.5 113t-128.5 40q-28 0 -53.5 -6.5
t-54.5 -27t-49.5 -53.5t-34 -90.5t-13.5 -133.5q0 -218 46 -307.5t157 -89.5z" />
    <glyph glyph-name="e" unicode="e" horiz-adv-x="1216" 
d="M1102 422h-674q6 -131 57.5 -193.5t153.5 -62.5q133 0 233 160l201 -115q-78 -124 -188 -182t-283 -58q-153 0 -265 72t-167 193.5t-55 277.5q0 238 135 383t358 145q126 0 228.5 -50t169.5 -146q61 -88 78.5 -167t17.5 -216v-41zM426 629v-23h379v25q0 223 -187 223
q-91 0 -141.5 -55.5t-50.5 -169.5z" />
    <glyph glyph-name="f" unicode="f" horiz-adv-x="768" 
d="M707 1507v-221h-74q-66 0 -94.5 -25.5t-28.5 -80.5v-166h195v-205h-195v-809h-295v811h-192v203h192v221q0 141 77.5 213t252.5 72q45 0 162 -13z" />
    <glyph glyph-name="g" unicode="g" 
d="M862 893v121h293v-1053q0 -350 -485 -350q-233 0 -354.5 68.5t-135.5 238.5l293 -47q19 -53 57.5 -72.5t124.5 -19.5q213 0 213 145v246q-57 -91 -132.5 -131.5t-186.5 -40.5q-190 0 -306 142t-116 370q0 244 119 388t315 144q97 0 169 -35.5t132 -113.5zM647 178
q157 0 217 178v365q-98 141 -207 141q-47 0 -82.5 -13.5t-67.5 -47t-48.5 -100.5t-16.5 -164q0 -194 49 -276.5t156 -82.5z" />
    <glyph glyph-name="h" unicode="h" 
d="M186 1477h293v-621q73 97 150.5 141.5t169.5 44.5q158 0 249 -88.5t91 -230.5v-723h-289v645q0 96 -42 149.5t-122 53.5q-90 0 -148.5 -75t-58.5 -185v-588h-293v1477z" />
    <glyph glyph-name="i" unicode="i" horiz-adv-x="661" 
d="M186 1477h293v-273h-293v273zM184 1014h293v-1014h-293v1014z" />
    <glyph glyph-name="j" unicode="j" horiz-adv-x="661" 
d="M219 1477h293v-273h-293v273zM221 1014h291v-1092q0 -155 -77 -234t-240 -79q-61 0 -129 14v209q10 -2 32 -2q65 0 94 26.5t29 98.5v1059z" />
    <glyph glyph-name="k" unicode="k" 
d="M180 1477h293v-824l363 361h389l-342 -312l383 -702h-314l-268 524l-207 -186v-338h-297v1477z" />
    <glyph glyph-name="l" unicode="l" horiz-adv-x="661" 
d="M186 1477h291v-1477h-291v1477z" />
    <glyph glyph-name="m" unicode="m" horiz-adv-x="1984" 
d="M1133 831q125 207 335 207q158 0 246 -92.5t88 -245.5v-700h-295v690q0 74 -39.5 116t-115.5 42q-91 0 -151 -73t-60 -179v-596h-295v684q0 160 -152 160q-99 0 -157 -68t-58 -178v-598h-295v1014h293v-164q128 188 359 188q121 0 192 -46.5t105 -160.5z" />
    <glyph glyph-name="n" unicode="n" 
d="M1143 676v-676h-295v588q0 142 -36.5 203t-125.5 61q-91 0 -151 -70.5t-60 -171.5v-610h-295v1014h295v-158q63 95 140.5 140.5t185.5 45.5q171 0 258 -96q45 -48 64.5 -108t19.5 -162z" />
    <glyph glyph-name="o" unicode="o" 
d="M1198 508q0 -113 -41 -213t-111.5 -172t-169 -114t-208.5 -42q-239 0 -391 150.5t-152 390.5q0 233 149.5 386t378.5 153q237 0 391 -154t154 -385zM662 176q221 0 221 332q0 149 -59.5 238.5t-161.5 89.5q-100 0 -161 -88t-61 -240q0 -332 222 -332z" />
    <glyph glyph-name="p" unicode="p" 
d="M1108 905q113 -137 113 -375q0 -258 -112 -407.5t-306 -149.5q-104 0 -176.5 35t-147.5 121v-520h-293v1405h293v-129q70 85 140 121t182 36q194 0 307 -137zM477 725v-430q110 -139 219 -139q29 0 58 7.5t64 32.5t54 66q37 79 37 221q0 187 -51 282t-164 95
q-63 0 -115 -31.5t-102 -103.5z" />
    <glyph glyph-name="q" unicode="q" 
d="M868 885v129h289v-1405h-293v522q-125 -158 -307 -158q-199 0 -316.5 147.5t-117.5 403.5q0 243 113.5 380.5t308.5 137.5q106 0 177 -36t146 -121zM641 156q115 0 227 147v414q-55 77 -107 111t-118 34q-83 0 -137 -65q-70 -83 -70 -289q0 -172 52.5 -262t152.5 -90z
" />
    <glyph glyph-name="r" unicode="r" horiz-adv-x="768" 
d="M702 1038h13v-307q-50 4 -62 4q-96 0 -159.5 -64.5t-63.5 -156.5v-514h-293v1014h266v-316q27 87 47 139t44 95.5t52.5 64t65.5 31t90 10.5z" />
    <glyph glyph-name="s" unicode="s" horiz-adv-x="1087" 
d="M969 772l-258 -45q-7 79 -57.5 115.5t-149.5 36.5q-63 0 -104.5 -24.5t-41.5 -61.5q0 -46 51.5 -73.5t184.5 -57.5q103 -23 175.5 -50.5t129 -67t84 -94t27.5 -126.5q0 -147 -103 -242q-120 -111 -354 -111q-108 0 -190.5 21t-137 61t-88.5 86.5t-59 108.5l233 90
q29 -103 95 -152t178 -49q77 0 123.5 31.5t46.5 81.5q0 47 -51 77.5t-181 59.5q-204 46 -305.5 126t-101.5 230q0 137 105 218t292 81q211 0 312.5 -63.5t144.5 -206.5z" />
    <glyph glyph-name="t" unicode="t" horiz-adv-x="768" 
d="M500 1481v-467h198v-203h-198v-489q0 -127 102 -127q32 0 92 18v-197q-130 -43 -223 -43q-139 0 -202.5 61.5t-63.5 180.5v596h-176v203h176v315z" />
    <glyph glyph-name="u" unicode="u" 
d="M180 1014h295v-692q0 -70 45.5 -116t122.5 -46q83 0 146 64.5t63 140.5v649h291v-1014h-293v147q-77 -96 -159.5 -136t-188.5 -40q-147 0 -234.5 84t-87.5 205v754z" />
    <glyph glyph-name="v" unicode="v" 
d="M104 1014h299l267 -705l248 705h299l-381 -1014h-326z" />
    <glyph glyph-name="w" unicode="w" horiz-adv-x="1748" 
d="M47 1014h287l172 -715l213 715h319l217 -713l162 713h285l-285 -1014h-317l-221 715l-215 -715h-318z" />
    <glyph glyph-name="x" unicode="x" 
d="M121 1014h328l215 -281l215 281h321l-373 -492l402 -522h-326l-239 309l-240 -309h-328l404 520z" />
    <glyph glyph-name="y" unicode="y" 
d="M109 1014h299l278 -738l236 738h295l-363 -1057q-27 -79 -53 -132t-61.5 -97t-81.5 -68.5t-108.5 -37.5t-146.5 -13q-140 0 -290 33v260q117 -37 213 -37q94 0 134 27t60 92z" />
    <glyph glyph-name="z" unicode="z" horiz-adv-x="1087" 
d="M164 1014h778v-207l-438 -576h446v-231h-815v201l445 581h-416v232z" />
    <glyph glyph-name="braceleft" unicode="{" horiz-adv-x="796" 
d="M57 451v239q54 2 92 14t62 43t37.5 58t19.5 87t7 99.5t1 124.5q0 74 5.5 126t21 102.5t44.5 82.5t74.5 57t113.5 36.5t159 11.5h47v-240h-18q-59 0 -90.5 -4t-55.5 -20t-32 -45t-8 -80q0 -198 -16.5 -304t-54.5 -164.5t-116 -105.5q79 -47 116.5 -105t54 -163t16.5 -303
q0 -51 8 -80.5t32 -45t55.5 -20t90.5 -4.5h18v-239h-47q-91 0 -159 11.5t-113.5 36.5t-74.5 57t-44.5 82.5t-21 102.5t-5.5 126q0 85 -1 124.5t-7 99.5t-19.5 87t-37.5 58t-62 43t-92 14z" />
    <glyph glyph-name="bar" unicode="|" horiz-adv-x="1202" 
d="M494 1536h217v-2048h-217v2048z" />
    <glyph glyph-name="braceright" unicode="}" horiz-adv-x="796" 
d="M739 690v-239q-54 -2 -92 -14t-62 -43t-37.5 -58t-19.5 -87t-7 -99.5t-1 -124.5q0 -74 -5.5 -126t-21 -102.5t-44.5 -82.5t-74.5 -57t-113.5 -36.5t-159 -11.5h-47v239h19q59 0 90.5 4.5t55.5 20t32 45t8 80.5q0 198 16 303.5t54 164t116 105.5q-59 36 -92.5 72.5
t-56 102.5t-30 156.5t-7.5 240.5q0 51 -8 80t-32 45t-55.5 20t-90.5 4h-19v240h47q91 0 159 -11.5t113.5 -36.5t74.5 -57t44.5 -82.5t21 -102.5t5.5 -126q0 -85 1 -124.5t7 -99.5t19.5 -87t37.5 -58t62 -43t92 -14z" />
    <glyph glyph-name="asciitilde" unicode="~" horiz-adv-x="1343" 
d="M934 748q130 0 293 147v-223q-167 -140 -303 -140q-87 0 -168 35q-17 7 -103 48.5t-139 60t-94 18.5q-141 0 -303 -147v223q52 47 139 92t178 45q58 0 117.5 -19t144.5 -61q86 -42 139 -60.5t99 -18.5z" />
    <glyph glyph-name="uni00A0" unicode="&#xa0;" horiz-adv-x="491" 
 />
    <glyph glyph-name="exclamdown" unicode="&#xa1;" horiz-adv-x="661" 
d="M182 1133h297v-308h-297v308zM223 666h211l45 -1008h-293z" />
    <glyph glyph-name="cent" unicode="&#xa2;" horiz-adv-x="1216" 
d="M897 1352h174l-160 -377q83 -46 126.5 -124.5t58.5 -199.5h-262q-20 55 -31 74l-225 -528q21 -7 61 -7q85 0 136 53.5t77 170.5h250q-4 -212 -126 -326.5t-339 -114.5q-69 0 -152 13l-161 -375h-177l189 434q-221 143 -221 465q0 250 134.5 391t368.5 141q60 0 138 -12z
M453 322l217 503q-14 2 -37 2q-99 0 -156 -74.5t-57 -228.5q0 -117 33 -202z" />
    <glyph glyph-name="sterling" unicode="&#xa3;" 
d="M1163 1092l-276 30q0 83 -39 120.5t-100 37.5q-60 0 -99 -51t-39 -129q0 -132 45 -281h267v-186h-248q2 -14 2 -51q0 -90 -7 -137.5t-38 -125.5q148 -68 198 -85t101 -17q74 0 107.5 40.5t33.5 121.5h205v-27q0 -375 -348 -375q-98 0 -174.5 27t-223.5 119
q-59 -77 -122 -112.5t-152 -35.5q-92 0 -149.5 53t-57.5 132q0 103 83 172t200 69q38 0 88 -8q4 25 4 39q0 106 -35 201h-287v184h248q-35 122 -35 221q0 212 120 336.5t317 124.5q185 0 296.5 -109.5t114.5 -297.5zM248 100q35 0 69.5 31.5t57.5 85.5q-12 12 -45 28.5
t-70 16.5t-66.5 -26t-29.5 -58q0 -35 23.5 -56.5t60.5 -21.5z" />
    <glyph glyph-name="currency" unicode="&#xa4;" horiz-adv-x="1366" 
d="M158 1059l139 143l133 -133q117 74 252 74q139 0 252 -74l133 133l141 -143l-135 -133q74 -113 74 -250q0 -133 -74 -250l135 -131l-141 -141l-133 129q-117 -74 -252 -74q-138 0 -250 76l-131 -131l-143 141l133 129q-74 120 -74 252q0 138 72 250zM682 410
q110 0 188 76.5t78 189.5q0 109 -77 187.5t-189 78.5q-108 0 -187 -77t-79 -189q0 -110 78 -188t188 -78z" />
    <glyph glyph-name="yen" unicode="&#xa5;" horiz-adv-x="1642" 
d="M92 1477h383l344 -529l344 529h383l-426 -656h430v-184h-551v-152h551v-184h-551v-301h-360v301h-543v184h543v152h-543v184h422z" />
    <glyph glyph-name="brokenbar" unicode="&#xa6;" horiz-adv-x="1202" 
d="M494 1382h217v-716h-217v716zM494 358h217v-716h-217v716z" />
    <glyph glyph-name="section" unicode="&#xa7;" horiz-adv-x="980" 
d="M887 1161l-232 -59q-14 106 -55.5 154.5t-120.5 48.5q-61 0 -101 -31t-40 -74q0 -48 43.5 -87t167.5 -109q101 -57 162.5 -99.5t114 -95.5t75.5 -113t23 -135q0 -107 -44.5 -194t-140.5 -164q81 -72 111.5 -129.5t30.5 -139.5q0 -46 -12.5 -90t-42 -87t-73 -75
t-112.5 -51.5t-154 -19.5q-352 0 -387 328l236 51q15 -197 172 -197q56 0 92.5 27.5t36.5 70.5q0 20 -6 37.5t-22 35.5t-30.5 31.5t-46.5 34.5t-54 35t-68.5 41.5t-75.5 45.5q-150 92 -212.5 178t-62.5 200q0 220 183 361q-74 60 -108 123.5t-34 142.5q0 154 108 244t292 90
q347 0 387 -330zM608 297q101 88 101 178q0 103 -121 189q-111 81 -215 133q-97 -89 -97 -183q0 -73 65.5 -136.5t266.5 -180.5z" />
    <glyph glyph-name="dieresis" unicode="&#xa8;" horiz-adv-x="681" 
d="M6 1415h240v-241h-240v241zM436 1415h240v-246h-240v246z" />
    <glyph glyph-name="copyright" unicode="&#xa9;" horiz-adv-x="1511" 
d="M1522 729q0 -157 -62 -299.5t-165 -244.5t-242.5 -162t-290.5 -60q-160 0 -304 61.5t-246 164.5t-162 244t-60 296q0 164 64.5 309t171 244t245 156t285.5 57q158 0 300.5 -61.5t244 -165t161.5 -244.5t60 -295zM758 113q167 0 309 83.5t223.5 224t81.5 302.5
q0 174 -84.5 318.5t-223.5 224.5t-300 80q-171 0 -314 -82t-225 -224t-82 -311q0 -124 48 -237.5t130 -196.5t196.5 -132.5t240.5 -49.5zM1104 911l-162 -39q-30 73 -71.5 106.5t-106.5 33.5q-96 0 -151.5 -73t-55.5 -198q0 -143 51.5 -220t147.5 -77q71 0 115 41.5
t71 130.5l162 -55q-76 -258 -352 -258q-170 0 -270.5 118t-100.5 310q0 197 107.5 310.5t281.5 113.5q125 0 206.5 -60t127.5 -184z" />
    <glyph glyph-name="ordfeminine" unicode="&#xaa;" horiz-adv-x="768" 
d="M641 1346v-287q0 -39 12 -56.5t39 -17.5q6 0 15 1t12 1v-117q-51 -26 -119 -26q-64 0 -95 26t-46 88q-68 -116 -203 -116q-92 0 -148.5 55.5t-56.5 142.5q0 55 19 95t55.5 64t79 37t98.5 19q7 1 31.5 3t32.5 3t26 4t32.5 7.5t31.5 11.5v31q0 47 -30 68.5t-75 21.5
q-43 0 -72.5 -18.5t-52.5 -61.5l-141 61q36 71 97.5 100.5t183.5 29.5q146 0 210 -42.5t64 -127.5zM332 965q56 0 90.5 38t34.5 101v104q-31 -20 -97 -32q-118 -22 -118 -123q0 -41 23.5 -64.5t66.5 -23.5z" />
    <glyph glyph-name="guillemotleft" unicode="&#xab;" horiz-adv-x="1087" 
d="M309 1057h238l-271 -488l269 -489h-238l-268 489zM813 1057h238l-271 -488l269 -489h-238l-268 489z" />
    <glyph glyph-name="logicalnot" unicode="&#xac;" horiz-adv-x="1366" 
d="M125 1022h1116v-703h-215v488h-901v215z" />
    <glyph glyph-name="uni00AD" unicode="&#xad;" horiz-adv-x="768" 
d="M98 643h572v-293h-572v293z" />
    <glyph glyph-name="registered" unicode="&#xae;" horiz-adv-x="1511" 
d="M1522 729q0 -157 -62 -299.5t-165 -244.5t-242.5 -162t-290.5 -60q-160 0 -304 61.5t-246 164.5t-162 244t-60 296q0 164 64.5 309t171 244t245 156t285.5 57q158 0 300.5 -61.5t244 -165t161.5 -244.5t60 -295zM758 113q167 0 309 83.5t223.5 224t81.5 302.5
q0 174 -84.5 318.5t-223.5 224.5t-300 80q-171 0 -314 -82t-225 -224t-82 -311q0 -124 48 -237.5t130 -196.5t196.5 -132.5t240.5 -49.5zM412 1133h389q125 0 196.5 -58.5t71.5 -171.5q0 -91 -58 -152.5t-159 -74.5q30 -11 50.5 -26.5t52 -58.5t75.5 -122q23 -41 44.5 -77
t32 -53t11.5 -20h-203l-69 134q-57 110 -105.5 155t-124.5 45h-41v-334h-163v814zM575 782h136q97 0 140.5 25.5t43.5 89.5q0 53 -44 80t-120 27h-156v-222z" />
    <glyph glyph-name="macron" unicode="&#xaf;" horiz-adv-x="681" 
d="M18 1346h646v-185h-646v185z" />
    <glyph glyph-name="degree" unicode="&#xb0;" horiz-adv-x="819" 
d="M729 1171q0 -131 -93.5 -225t-223.5 -94q-127 0 -224.5 91.5t-97.5 219.5q0 137 91.5 232.5t228.5 95.5q131 0 225 -94t94 -226zM410 1020q62 0 107.5 43.5t45.5 107.5q0 65 -45.5 109.5t-107.5 44.5q-63 0 -108.5 -46t-45.5 -108t46 -106.5t108 -44.5z" />
    <glyph glyph-name="plusminus" unicode="&#xb1;" horiz-adv-x="1368" 
d="M575 1413h216v-450h450v-215h-450v-451h-216v451h-450v215h450v450zM125 156h1116v-215h-1116v215z" />
    <glyph glyph-name="two.superior" unicode="&#xb2;" horiz-adv-x="661" 
d="M557 1288q0 -49 -25 -95.5t-64 -84t-79.5 -70.5t-80 -68t-56.5 -63h328v-135h-498q3 103 108 221q27 31 71 75t66.5 68t41 61t18.5 77q0 44 -21 73t-59 29q-35 0 -55.5 -22.5t-20.5 -59.5q0 -12 5 -32l-125 -50q-19 59 -19 88q0 86 61.5 139.5t163.5 53.5
q109 0 174.5 -55.5t65.5 -149.5z" />
    <glyph glyph-name="three.superior" unicode="&#xb3;" horiz-adv-x="661" 
d="M547 1327q0 -111 -135 -162q81 -32 118 -82.5t37 -124.5q0 -90 -67.5 -146t-173.5 -56q-96 0 -163 55t-67 131q0 25 6 62l134 -31v-21q0 -44 21.5 -69t59.5 -25q80 0 80 125q0 66 -26.5 95t-89.5 30v88q57 2 83.5 26t26.5 78q0 43 -20.5 68t-55.5 25q-40 0 -59 -18
t-27 -60l-131 -35q0 4 -1 17t-1 20q0 83 58.5 130.5t169.5 47.5q102 0 162.5 -47t60.5 -121z" />
    <glyph glyph-name="acute" unicode="&#xb4;" horiz-adv-x="681" 
d="M336 1415h315l-276 -299h-178z" />
    <glyph glyph-name="mu" unicode="&#xb5;" horiz-adv-x="1251" 
d="M133 1047h291v-549q0 -141 52.5 -219t150.5 -78q97 0 149.5 77.5t52.5 219.5v549h291v-1047h-291v78q-75 -103 -202 -103q-63 0 -116 28.5t-87 74.5v-486h-291v1455z" />
    <glyph glyph-name="paragraph" unicode="&#xb6;" horiz-adv-x="1138" 
d="M526 1477h609v-263h-113v-1607h-238v1607h-143v-1607h-244v1046q-189 13 -291 120t-102 290q0 106 43.5 197t120.5 141q80 52 142.5 64t215.5 12z" />
    <glyph glyph-name="periodcentered" unicode="&#xb7;" horiz-adv-x="555" 
d="M127 721h303v-307h-303v307z" />
    <glyph glyph-name="cedilla" unicode="&#xb8;" horiz-adv-x="681" 
d="M612 -236q0 -100 -95 -159.5t-255 -59.5q-107 0 -194 17v119q117 -13 184 -13q81 0 125.5 25.5t44.5 68.5q0 41 -34 62.5t-95 21.5q-59 0 -129 -18l24 98q79 27 170 27q115 0 184.5 -52t69.5 -137z" />
    <glyph glyph-name="one.superior" unicode="&#xb9;" horiz-adv-x="661" 
d="M365 1495h118v-723h-153v490q-50 -44 -81.5 -63.5t-68.5 -31.5v146q77 50 117.5 88t67.5 94z" />
    <glyph glyph-name="ordmasculine" unicode="&#xba;" horiz-adv-x="831" 
d="M756 1178q0 -152 -95 -247t-249 -95q-141 0 -237.5 99.5t-96.5 242.5q0 145 95 241.5t239 96.5q150 0 247 -96t97 -242zM416 965q141 0 141 209q0 210 -141 210q-137 0 -137 -208q0 -211 137 -211z" />
    <glyph glyph-name="guillemotright" unicode="&#xbb;" horiz-adv-x="1087" 
d="M39 1057h237l271 -488l-268 -489h-238l266 489zM541 1057h237l271 -488l-269 -489h-237l266 489z" />
    <glyph glyph-name="onequarter" unicode="&#xbc;" horiz-adv-x="1748" 
d="M414 1483h145v-854h-227v571q-102 -72 -182 -84v174q170 63 264 193zM1456 1481h209l-1368 -1827h-213zM1290 522h205v-575h92v-142h-92v-133h-207v133h-330v172zM1288 -53v356l-217 -356h217z" />
    <glyph glyph-name="onehalf" unicode="&#xbd;" horiz-adv-x="1748" 
d="M416 1481h141v-852h-225v569q-57 -40 -95.5 -57.5t-86.5 -24.5v172q99 43 160 88t106 105zM1452 1481h207l-1360 -1827h-213zM1657 246q0 -61 -25 -111t-67 -85.5t-85.5 -63t-92.5 -59t-76 -58.5h352v-195h-629q1 109 48.5 177t164.5 157q107 80 146 131.5t39 106.5
q0 53 -26 88t-63 35q-46 0 -68 -30t-22 -77q0 -17 4 -33l-194 -73q-23 77 -23 112q0 111 89.5 183.5t216.5 72.5q140 0 225.5 -76t85.5 -202z" />
    <glyph glyph-name="threequarters" unicode="&#xbe;" horiz-adv-x="1748" 
d="M674 1266q0 -139 -187 -187q98 -13 150.5 -70t52.5 -149q0 -117 -82 -183.5t-227 -66.5q-128 0 -207.5 64.5t-79.5 165.5q0 25 4 61l183 -47q0 -2 -1 -11.5t-1 -17.5q0 -40 25 -64t63 -24q43 0 69.5 35t26.5 94q0 140 -117 140h-31v135h21q113 0 113 108q0 47 -22.5 77
t-57.5 30q-32 0 -55 -21.5t-23 -56.5v-16l-174 -37q-6 36 -6 57q0 91 67 145t182 54q144 0 229 -57.5t85 -157.5zM1454 1481h211l-1366 -1827h-215zM1290 524h205v-575h92v-142h-92v-135h-207v135h-330v173zM1288 305l-217 -358h217v358z" />
    <glyph glyph-name="questiondown" unicode="&#xbf;" horiz-adv-x="1216" 
d="M139 -16q0 173 131 301q29 28 75.5 65.5t77 63.5t62 61t47 77t15.5 93v21h215q-1 -138 -31 -209.5t-117 -151.5t-123 -143.5t-36 -149.5q0 -100 44.5 -153.5t129.5 -53.5q176 0 176 230q0 37 -10 108l286 -112q-14 -195 -131 -301q-120 -105 -334 -105q-217 0 -347 99
t-130 260zM801 827h-291v310h291v-310z" />
    <glyph glyph-name="Agrave" unicode="&#xc0;" horiz-adv-x="1748" 
d="M641 1477h461l532 -1477h-358l-98 285h-607l-98 -285h-358zM872 1165l-204 -596h411zM553 1878h315l138 -299h-179z" />
    <glyph glyph-name="Aacute" unicode="&#xc1;" horiz-adv-x="1748" 
d="M641 1477h461l532 -1477h-358l-98 285h-607l-98 -285h-358zM872 1165l-204 -596h411zM883 1878h315l-276 -299h-179z" />
    <glyph glyph-name="Acircumflex" unicode="&#xc2;" horiz-adv-x="1748" 
d="M641 1477h461l532 -1477h-358l-98 285h-607l-98 -285h-358zM872 1165l-204 -596h411zM748 1878h260l206 -295h-225l-117 150l-108 -150h-227z" />
    <glyph glyph-name="Atilde" unicode="&#xc3;" horiz-adv-x="1748" 
d="M641 1477h461l532 -1477h-358l-98 285h-607l-98 -285h-358zM872 1165l-204 -596h411zM1094 1847h129q0 -252 -185 -252q-52 0 -158 42t-151 42q-70 0 -70 -88h-127v29q0 107 48.5 166t134.5 59q49 0 105 -21.5t106.5 -43t85.5 -21.5q71 0 82 88z" />
    <glyph glyph-name="Adieresis" unicode="&#xc4;" horiz-adv-x="1748" 
d="M641 1477h461l532 -1477h-358l-98 285h-607l-98 -285h-358zM872 1165l-204 -596h411zM541 1878h239v-242h-239v242zM971 1878h239v-246h-239v246z" />
    <glyph glyph-name="Aring" unicode="&#xc5;" horiz-adv-x="1748" 
d="M641 1477h461l532 -1477h-358l-98 285h-607l-98 -285h-358zM872 1165l-204 -596h411zM1071 1729q0 -80 -56.5 -137.5t-137.5 -57.5q-82 0 -139.5 58.5t-57.5 136.5q0 80 58 138t139 58q80 0 137 -57.5t57 -138.5zM877 1640q37 0 62.5 26t25.5 63t-25.5 63.5t-62.5 26.5
t-64 -26.5t-27 -63.5t27 -63t64 -26z" />
    <glyph glyph-name="AE" unicode="&#xc6;" horiz-adv-x="2197" 
d="M731 1477h1313l-49 -271h-588v-307h549v-270h-549v-359h608l56 -270h-1027v289h-526l-137 -289h-375zM1047 1206h-93l-303 -637h396v637z" />
    <glyph glyph-name="Ccedilla" unicode="&#xc7;" horiz-adv-x="1642" 
d="M1503 1106l-295 -172q-64 145 -148 209.5t-204 64.5q-167 0 -261.5 -126.5t-94.5 -348.5q0 -225 99 -347t278 -122q224 0 360 252l287 -201q-106 -186 -265.5 -274t-379.5 -88q-346 0 -553 209.5t-207 562.5q0 232 89.5 411t251 277t369.5 98q249 0 422 -100
q78 -47 138 -116t114 -189zM1106 -276q0 -100 -95.5 -160t-254.5 -60q-108 0 -195 17v119q117 -13 184 -13q81 0 125.5 25.5t44.5 68.5q0 41 -34 62.5t-95 21.5q-59 0 -129 -18l25 98q79 27 170 27q115 0 184.5 -51.5t69.5 -136.5z" />
    <glyph glyph-name="Egrave" unicode="&#xc8;" 
d="M182 1477h1024l-55 -271h-608v-307h561v-270h-561v-359h624l56 -270h-1041v1477zM354 1878h316l137 -299h-178z" />
    <glyph glyph-name="Eacute" unicode="&#xc9;" 
d="M182 1477h1024l-55 -271h-608v-307h561v-270h-561v-359h624l56 -270h-1041v1477zM657 1878h316l-277 -299h-178z" />
    <glyph glyph-name="Ecircumflex" unicode="&#xca;" 
d="M182 1477h1024l-55 -271h-608v-307h561v-270h-561v-359h624l56 -270h-1041v1477zM555 1878h260l207 -295h-225l-117 150l-109 -150h-227z" />
    <glyph glyph-name="Edieresis" unicode="&#xcb;" 
d="M182 1477h1024l-55 -271h-608v-307h561v-270h-561v-359h624l56 -270h-1041v1477zM348 1878h240v-242h-240v242zM778 1878h240v-246h-240v246z" />
    <glyph glyph-name="Igrave" unicode="&#xcc;" horiz-adv-x="768" 
d="M205 1477h360v-1477h-360v1477zM61 1878h316l137 -299h-178z" />
    <glyph glyph-name="Iacute" unicode="&#xcd;" horiz-adv-x="768" 
d="M205 1477h360v-1477h-360v1477zM377 1878h315l-276 -299h-178z" />
    <glyph glyph-name="Icircumflex" unicode="&#xce;" horiz-adv-x="768" 
d="M205 1477h360v-1477h-360v1477zM256 1878h260l207 -295h-225l-117 150l-109 -150h-227z" />
    <glyph glyph-name="Idieresis" unicode="&#xcf;" horiz-adv-x="768" 
d="M205 1477h360v-1477h-360v1477zM49 1878h240v-242h-240v242zM479 1878h240v-246h-240v246z" />
    <glyph glyph-name="Eth" unicode="&#xd0;" horiz-adv-x="1748" 
d="M238 1477h749q135 0 251.5 -51t202 -144t134.5 -233.5t49 -311.5q0 -347 -172 -542t-457 -195h-757v647h-195v184h195v646zM602 309h283q174 0 267 105.5t93 318.5t-87.5 325.5t-242.5 112.5h-313v-340h346v-184h-346v-338z" />
    <glyph glyph-name="Ntilde" unicode="&#xd1;" horiz-adv-x="1748" 
d="M227 1477h426l518 -867v867h349v-1477h-398l-547 920v-920h-348v1477zM1112 1847h129q0 -252 -184 -252q-52 0 -158 42t-151 42q-70 0 -70 -88h-127v29q0 107 48 166t134 59q49 0 105 -21.5t106.5 -43t85.5 -21.5q71 0 82 88z" />
    <glyph glyph-name="Ograve" unicode="&#xd2;" horiz-adv-x="1748" 
d="M1638 737q0 -175 -58.5 -323t-160 -248.5t-240.5 -156.5t-298 -56q-230 0 -405.5 97.5t-270 273t-94.5 403.5q0 191 62.5 344t168.5 248.5t239.5 146t282.5 50.5q165 0 306 -52.5t245 -150t163.5 -246t59.5 -330.5zM874 270q178 0 279.5 124t101.5 341
q0 216 -100.5 337.5t-282.5 121.5q-177 0 -277.5 -122t-100.5 -337q0 -217 101 -341t279 -124zM567 1878h316l137 -299h-178z" />
    <glyph glyph-name="Oacute" unicode="&#xd3;" horiz-adv-x="1748" 
d="M1638 737q0 -175 -58.5 -323t-160 -248.5t-240.5 -156.5t-298 -56q-230 0 -405.5 97.5t-270 273t-94.5 403.5q0 191 62.5 344t168.5 248.5t239.5 146t282.5 50.5q165 0 306 -52.5t245 -150t163.5 -246t59.5 -330.5zM874 270q178 0 279.5 124t101.5 341
q0 216 -100.5 337.5t-282.5 121.5q-177 0 -277.5 -122t-100.5 -337q0 -217 101 -341t279 -124zM870 1878h316l-277 -299h-178z" />
    <glyph glyph-name="Ocircumflex" unicode="&#xd4;" horiz-adv-x="1748" 
d="M1638 737q0 -175 -58.5 -323t-160 -248.5t-240.5 -156.5t-298 -56q-230 0 -405.5 97.5t-270 273t-94.5 403.5q0 191 62.5 344t168.5 248.5t239.5 146t282.5 50.5q165 0 306 -52.5t245 -150t163.5 -246t59.5 -330.5zM874 270q178 0 279.5 124t101.5 341
q0 216 -100.5 337.5t-282.5 121.5q-177 0 -277.5 -122t-100.5 -337q0 -217 101 -341t279 -124zM748 1878h260l206 -295h-225l-117 150l-108 -150h-227z" />
    <glyph glyph-name="Otilde" unicode="&#xd5;" horiz-adv-x="1748" 
d="M1638 737q0 -175 -58.5 -323t-160 -248.5t-240.5 -156.5t-298 -56q-230 0 -405.5 97.5t-270 273t-94.5 403.5q0 191 62.5 344t168.5 248.5t239.5 146t282.5 50.5q165 0 306 -52.5t245 -150t163.5 -246t59.5 -330.5zM874 270q178 0 279.5 124t101.5 341
q0 216 -100.5 337.5t-282.5 121.5q-177 0 -277.5 -122t-100.5 -337q0 -217 101 -341t279 -124zM1092 1847h129q0 -252 -185 -252q-52 0 -158 42t-151 42q-70 0 -70 -88h-127v29q0 107 48.5 166t134.5 59q49 0 105 -21.5t106.5 -43t85.5 -21.5q71 0 82 88z" />
    <glyph glyph-name="Odieresis" unicode="&#xd6;" horiz-adv-x="1748" 
d="M1638 737q0 -175 -58.5 -323t-160 -248.5t-240.5 -156.5t-298 -56q-230 0 -405.5 97.5t-270 273t-94.5 403.5q0 191 62.5 344t168.5 248.5t239.5 146t282.5 50.5q165 0 306 -52.5t245 -150t163.5 -246t59.5 -330.5zM874 270q178 0 279.5 124t101.5 341
q0 216 -100.5 337.5t-282.5 121.5q-177 0 -277.5 -122t-100.5 -337q0 -217 101 -341t279 -124zM541 1878h239v-242h-239v242zM971 1878h239v-246h-239v246z" />
    <glyph glyph-name="multiply" unicode="&#xd7;" horiz-adv-x="1366" 
d="M309 1200l375 -375l375 375l151 -151l-372 -375l370 -371l-151 -151l-371 370l-373 -370l-151 151l370 371l-374 375z" />
    <glyph glyph-name="Oslash" unicode="&#xd8;" horiz-adv-x="1748" 
d="M1389 1526l198 -160l-108 -127q159 -199 159 -502q0 -232 -99 -411.5t-269.5 -276t-382.5 -96.5q-250 0 -418 104l-107 -125l-198 162l110 129q-163 200 -163 508q0 183 59.5 333.5t163 248t240 150.5t292.5 53q238 0 422 -107zM528 520l537 627q-77 47 -193 47
q-177 0 -277.5 -122t-100.5 -337q0 -128 34 -215zM1225 942l-535 -625q74 -47 184 -47q178 0 279.5 124t101.5 341q0 102 -30 207z" />
    <glyph glyph-name="Ugrave" unicode="&#xd9;" horiz-adv-x="1642" 
d="M188 1477h361v-930q0 -137 65.5 -210t198.5 -73q141 0 211 74t70 215v924h362v-1031q0 -237 -160 -364t-475 -127q-633 0 -633 491v1031zM514 1878h315l138 -299h-179z" />
    <glyph glyph-name="Uacute" unicode="&#xda;" horiz-adv-x="1642" 
d="M188 1477h361v-930q0 -137 65.5 -210t198.5 -73q141 0 211 74t70 215v924h362v-1031q0 -237 -160 -364t-475 -127q-633 0 -633 491v1031zM817 1878h316l-277 -299h-178z" />
    <glyph glyph-name="Ucircumflex" unicode="&#xdb;" horiz-adv-x="1642" 
d="M188 1477h361v-930q0 -137 65.5 -210t198.5 -73q141 0 211 74t70 215v924h362v-1031q0 -237 -160 -364t-475 -127q-633 0 -633 491v1031zM694 1878h260l207 -295h-225l-117 150l-108 -150h-228z" />
    <glyph glyph-name="Udieresis" unicode="&#xdc;" horiz-adv-x="1642" 
d="M188 1477h361v-930q0 -137 65.5 -210t198.5 -73q141 0 211 74t70 215v924h362v-1031q0 -237 -160 -364t-475 -127q-633 0 -633 491v1031zM487 1878h240v-242h-240v242zM918 1878h239v-246h-239v246z" />
    <glyph glyph-name="Yacute" unicode="&#xdd;" horiz-adv-x="1642" 
d="M92 1477h383l346 -607l353 607h378l-553 -916v-561h-360v563zM817 1878h316l-277 -299h-178z" />
    <glyph glyph-name="Thorn" unicode="&#xde;" horiz-adv-x="1642" 
d="M215 1477h363v-277h335q177 0 310.5 -50.5t210.5 -153.5t77 -246q0 -138 -68.5 -247t-180 -166.5t-242.5 -57.5h-442v-279h-363v1477zM578 547h323q101 0 167.5 52.5t66.5 141.5q0 90 -58.5 139.5t-158.5 49.5h-340v-383z" />
    <glyph glyph-name="germandbls" unicode="&#xdf;" 
d="M1128 1135q0 -208 -215 -293q141 -53 202 -149t61 -267q0 -223 -94.5 -338t-278.5 -115q-93 0 -191 29v217q60 -49 125 -49q68 0 98.5 66.5t30.5 214.5q0 59 -2 95.5t-9.5 73.5t-21 57.5t-37 37.5t-58 23.5t-83.5 6.5v183q92 0 129 40t37 138q0 209 -190 209
q-95 0 -143 -55.5t-48 -155.5v-1104h-290v1024q0 241 126 367q61 59 147.5 88.5t225.5 29.5q223 0 351 -100.5t128 -273.5z" />
    <glyph glyph-name="agrave" unicode="&#xe0;" horiz-adv-x="1216" 
d="M1038 717v-426q0 -43 21 -67.5t59 -24.5q13 0 41 4v-187q-80 -41 -190 -41q-100 0 -150 45t-69 142q-60 -100 -136 -144.5t-186 -44.5q-148 0 -238 87t-90 229q0 94 37 158t111 110q53 32 122.5 48.5t126.5 19.5t126 15t120 36v31q0 157 -168 157q-133 0 -194 -131
l-223 103q50 107 151 155.5t281 48.5q246 0 347 -69t101 -254zM541 166q86 0 144 59.5t58 139.5v188q-44 -30 -147 -53q-104 -24 -148.5 -67.5t-44.5 -125.5q0 -66 37.5 -103.5t100.5 -37.5zM301 1415h315l138 -299h-179z" />
    <glyph glyph-name="aacute" unicode="&#xe1;" horiz-adv-x="1216" 
d="M1038 717v-426q0 -43 21 -67.5t59 -24.5q13 0 41 4v-187q-80 -41 -190 -41q-100 0 -150 45t-69 142q-60 -100 -136 -144.5t-186 -44.5q-148 0 -238 87t-90 229q0 94 37 158t111 110q53 32 122.5 48.5t126.5 19.5t126 15t120 36v31q0 157 -168 157q-133 0 -194 -131
l-223 103q50 107 151 155.5t281 48.5q246 0 347 -69t101 -254zM541 166q86 0 144 59.5t58 139.5v188q-44 -30 -147 -53q-104 -24 -148.5 -67.5t-44.5 -125.5q0 -66 37.5 -103.5t100.5 -37.5zM604 1415h316l-277 -299h-178z" />
    <glyph glyph-name="acircumflex" unicode="&#xe2;" horiz-adv-x="1216" 
d="M1038 717v-426q0 -43 21 -67.5t59 -24.5q13 0 41 4v-187q-80 -41 -190 -41q-100 0 -150 45t-69 142q-60 -100 -136 -144.5t-186 -44.5q-148 0 -238 87t-90 229q0 94 37 158t111 110q53 32 122.5 48.5t126.5 19.5t126 15t120 36v31q0 157 -168 157q-133 0 -194 -131
l-223 103q50 107 151 155.5t281 48.5q246 0 347 -69t101 -254zM541 166q86 0 144 59.5t58 139.5v188q-44 -30 -147 -53q-104 -24 -148.5 -67.5t-44.5 -125.5q0 -66 37.5 -103.5t100.5 -37.5zM481 1415h260l207 -295h-225l-117 150l-108 -150h-228z" />
    <glyph glyph-name="atilde" unicode="&#xe3;" horiz-adv-x="1216" 
d="M1038 717v-426q0 -43 21 -67.5t59 -24.5q13 0 41 4v-187q-80 -41 -190 -41q-100 0 -150 45t-69 142q-60 -100 -136 -144.5t-186 -44.5q-148 0 -238 87t-90 229q0 94 37 158t111 110q53 32 122.5 48.5t126.5 19.5t126 15t120 36v31q0 157 -168 157q-133 0 -194 -131
l-223 103q50 107 151 155.5t281 48.5q246 0 347 -69t101 -254zM541 166q86 0 144 59.5t58 139.5v188q-44 -30 -147 -53q-104 -24 -148.5 -67.5t-44.5 -125.5q0 -66 37.5 -103.5t100.5 -37.5zM825 1384h129q0 -251 -184 -251q-52 0 -158 42t-151 42q-70 0 -70 -89h-127v29
q0 107 48 166t134 59q49 0 105 -21.5t106.5 -43t85.5 -21.5q71 0 82 88z" />
    <glyph glyph-name="adieresis" unicode="&#xe4;" horiz-adv-x="1216" 
d="M1038 717v-426q0 -43 21 -67.5t59 -24.5q13 0 41 4v-187q-80 -41 -190 -41q-100 0 -150 45t-69 142q-60 -100 -136 -144.5t-186 -44.5q-148 0 -238 87t-90 229q0 94 37 158t111 110q53 32 122.5 48.5t126.5 19.5t126 15t120 36v31q0 157 -168 157q-133 0 -194 -131
l-223 103q50 107 151 155.5t281 48.5q246 0 347 -69t101 -254zM541 166q86 0 144 59.5t58 139.5v188q-44 -30 -147 -53q-104 -24 -148.5 -67.5t-44.5 -125.5q0 -66 37.5 -103.5t100.5 -37.5zM274 1415h240v-241h-240v241zM705 1415h239v-246h-239v246z" />
    <glyph glyph-name="aring" unicode="&#xe5;" horiz-adv-x="1216" 
d="M1038 717v-426q0 -43 21 -67.5t59 -24.5q13 0 41 4v-187q-80 -41 -190 -41q-100 0 -150 45t-69 142q-60 -100 -136 -144.5t-186 -44.5q-148 0 -238 87t-90 229q0 94 37 158t111 110q53 32 122.5 48.5t126.5 19.5t126 15t120 36v31q0 157 -168 157q-133 0 -194 -131
l-223 103q50 107 151 155.5t281 48.5q246 0 347 -69t101 -254zM541 166q86 0 144 59.5t58 139.5v188q-44 -30 -147 -53q-104 -24 -148.5 -67.5t-44.5 -125.5q0 -66 37.5 -103.5t100.5 -37.5zM805 1266q0 -80 -57 -137.5t-138 -57.5q-82 0 -139 58.5t-57 136.5q0 80 57.5 138
t138.5 58q80 0 137.5 -57.5t57.5 -138.5zM610 1178q37 0 62.5 25.5t25.5 62.5t-25.5 63.5t-62.5 26.5t-63.5 -26.5t-26.5 -63.5t26.5 -62.5t63.5 -25.5z" />
    <glyph glyph-name="ae" unicode="&#xe6;" horiz-adv-x="1748" 
d="M1667 502v-80h-647q4 -129 52 -191.5t142 -62.5q67 0 118 37.5t108 120.5l196 -115q-83 -125 -188.5 -181.5t-261.5 -56.5q-144 0 -249 54t-179 188q-70 -133 -154 -188.5t-211 -55.5q-140 0 -225.5 90t-85.5 226q0 87 37 154.5t123 117.5q69 41 240.5 64.5t228.5 50.5
v76q0 53 -44 84.5t-114 31.5q-74 0 -118 -30.5t-73 -102.5l-221 98q47 111 154.5 161t288.5 50q111 0 185 -15.5t144 -57.5q129 75 271 75q214 0 348.5 -144.5t134.5 -397.5zM1020 627v-23h352v23q0 229 -180 229q-172 0 -172 -229zM514 158q83 0 141 63t58 141v193
q-48 -28 -138 -53q-104 -31 -149 -72t-45 -121q0 -69 36 -110t97 -41z" />
    <glyph glyph-name="ccedilla" unicode="&#xe7;" horiz-adv-x="1216" 
d="M1073 774l-233 -125q-31 96 -79 137t-128 41q-102 0 -155.5 -80t-53.5 -227q0 -332 217 -332q81 0 134 46t91 149l232 -127q-63 -151 -177 -218t-284 -67q-250 0 -384 144.5t-134 410.5q0 161 65 279q68 121 173 179t278 58q170 0 273 -63.5t165 -204.5zM893 -256
q0 -100 -95 -159.5t-255 -59.5q-113 0 -195 16v119q108 -12 184 -12q81 0 125.5 25.5t44.5 68.5q0 41 -34 62.5t-95 21.5q-55 0 -129 -19l25 99q76 26 170 26q115 0 184.5 -51.5t69.5 -136.5z" />
    <glyph glyph-name="egrave" unicode="&#xe8;" horiz-adv-x="1216" 
d="M1102 422h-674q6 -131 57.5 -193.5t153.5 -62.5q133 0 233 160l201 -115q-78 -124 -188 -182t-283 -58q-153 0 -265 72t-167 193.5t-55 277.5q0 238 135 383t358 145q126 0 228.5 -50t169.5 -146q61 -88 78.5 -167t17.5 -216v-41zM426 629v-23h379v25q0 223 -187 223
q-91 0 -141.5 -55.5t-50.5 -169.5zM301 1415h315l138 -299h-179z" />
    <glyph glyph-name="eacute" unicode="&#xe9;" horiz-adv-x="1216" 
d="M1102 422h-674q6 -131 57.5 -193.5t153.5 -62.5q133 0 233 160l201 -115q-78 -124 -188 -182t-283 -58q-153 0 -265 72t-167 193.5t-55 277.5q0 238 135 383t358 145q126 0 228.5 -50t169.5 -146q61 -88 78.5 -167t17.5 -216v-41zM426 629v-23h379v25q0 223 -187 223
q-91 0 -141.5 -55.5t-50.5 -169.5zM604 1415h316l-277 -299h-178z" />
    <glyph glyph-name="ecircumflex" unicode="&#xea;" horiz-adv-x="1216" 
d="M1102 422h-674q6 -131 57.5 -193.5t153.5 -62.5q133 0 233 160l201 -115q-78 -124 -188 -182t-283 -58q-153 0 -265 72t-167 193.5t-55 277.5q0 238 135 383t358 145q126 0 228.5 -50t169.5 -146q61 -88 78.5 -167t17.5 -216v-41zM426 629v-23h379v25q0 223 -187 223
q-91 0 -141.5 -55.5t-50.5 -169.5zM481 1415h260l207 -295h-225l-117 150l-108 -150h-228z" />
    <glyph glyph-name="edieresis" unicode="&#xeb;" horiz-adv-x="1216" 
d="M1102 422h-674q6 -131 57.5 -193.5t153.5 -62.5q133 0 233 160l201 -115q-78 -124 -188 -182t-283 -58q-153 0 -265 72t-167 193.5t-55 277.5q0 238 135 383t358 145q126 0 228.5 -50t169.5 -146q61 -88 78.5 -167t17.5 -216v-41zM426 629v-23h379v25q0 223 -187 223
q-91 0 -141.5 -55.5t-50.5 -169.5zM274 1415h240v-241h-240v241zM705 1415h239v-246h-239v246z" />
    <glyph glyph-name="igrave" unicode="&#xec;" horiz-adv-x="661" 
d="M184 1014h293v-1014h-293v1014zM4 1415h315l138 -299h-178z" />
    <glyph glyph-name="iacute" unicode="&#xed;" horiz-adv-x="661" 
d="M184 1014h293v-1014h-293v1014zM342 1415h315l-276 -299h-178z" />
    <glyph glyph-name="icircumflex" unicode="&#xee;" horiz-adv-x="661" 
d="M184 1014h293v-1014h-293v1014zM203 1415h260l207 -295h-226l-116 150l-109 -150h-227z" />
    <glyph glyph-name="idieresis" unicode="&#xef;" horiz-adv-x="661" 
d="M184 1014h293v-1014h-293v1014zM-4 1415h240v-241h-240v241zM426 1415h240v-246h-240v246z" />
    <glyph glyph-name="eth" unicode="&#xf0;" 
d="M459 1415l176 113q9 -7 37 -26.5t55 -40t51 -42.5l234 92l57 -157l-151 -58q135 -158 213.5 -350t78.5 -405q0 -142 -44 -254t-118.5 -180t-167.5 -103t-198 -35q-146 0 -269 70.5t-194.5 192.5t-71.5 268q0 238 146.5 390t376.5 152q70 0 131 -26q-40 89 -117 192
l-274 -102l-58 151l209 82q-10 8 -31.5 25.5t-38.5 30t-32 20.5zM686 180q104 0 160.5 84t56.5 244q0 155 -59.5 242.5t-163.5 87.5q-101 0 -162 -89t-61 -241q0 -161 58 -244.5t171 -83.5z" />
    <glyph glyph-name="ntilde" unicode="&#xf1;" 
d="M1143 676v-676h-295v588q0 142 -36.5 203t-125.5 61q-91 0 -151 -70.5t-60 -171.5v-610h-295v1014h295v-158q63 95 140.5 140.5t185.5 45.5q171 0 258 -96q45 -48 64.5 -108t19.5 -162zM879 1384h129q0 -251 -185 -251q-52 0 -158 42t-151 42q-70 0 -70 -89h-127v29
q0 107 48.5 166t134.5 59q49 0 105 -21.5t106.5 -43t85.5 -21.5q71 0 82 88z" />
    <glyph glyph-name="ograve" unicode="&#xf2;" 
d="M1198 508q0 -113 -41 -213t-111.5 -172t-169 -114t-208.5 -42q-239 0 -391 150.5t-152 390.5q0 233 149.5 386t378.5 153q237 0 391 -154t154 -385zM662 176q221 0 221 332q0 149 -59.5 238.5t-161.5 89.5q-100 0 -161 -88t-61 -240q0 -332 222 -332zM354 1415h316
l137 -299h-178z" />
    <glyph glyph-name="oacute" unicode="&#xf3;" 
d="M1198 508q0 -113 -41 -213t-111.5 -172t-169 -114t-208.5 -42q-239 0 -391 150.5t-152 390.5q0 233 149.5 386t378.5 153q237 0 391 -154t154 -385zM662 176q221 0 221 332q0 149 -59.5 238.5t-161.5 89.5q-100 0 -161 -88t-61 -240q0 -332 222 -332zM657 1415h316
l-277 -299h-178z" />
    <glyph glyph-name="ocircumflex" unicode="&#xf4;" 
d="M1198 508q0 -113 -41 -213t-111.5 -172t-169 -114t-208.5 -42q-239 0 -391 150.5t-152 390.5q0 233 149.5 386t378.5 153q237 0 391 -154t154 -385zM662 176q221 0 221 332q0 149 -59.5 238.5t-161.5 89.5q-100 0 -161 -88t-61 -240q0 -332 222 -332zM535 1415h260
l206 -295h-225l-117 150l-108 -150h-227z" />
    <glyph glyph-name="otilde" unicode="&#xf5;" 
d="M1198 508q0 -113 -41 -213t-111.5 -172t-169 -114t-208.5 -42q-239 0 -391 150.5t-152 390.5q0 233 149.5 386t378.5 153q237 0 391 -154t154 -385zM662 176q221 0 221 332q0 149 -59.5 238.5t-161.5 89.5q-100 0 -161 -88t-61 -240q0 -332 222 -332zM879 1384h129
q0 -251 -185 -251q-52 0 -158 42t-151 42q-70 0 -70 -89h-127v29q0 107 48.5 166t134.5 59q49 0 105 -21.5t106.5 -43t85.5 -21.5q71 0 82 88z" />
    <glyph glyph-name="odieresis" unicode="&#xf6;" 
d="M1198 508q0 -113 -41 -213t-111.5 -172t-169 -114t-208.5 -42q-239 0 -391 150.5t-152 390.5q0 233 149.5 386t378.5 153q237 0 391 -154t154 -385zM662 176q221 0 221 332q0 149 -59.5 238.5t-161.5 89.5q-100 0 -161 -88t-61 -240q0 -332 222 -332zM328 1415h239v-241
h-239v241zM758 1415h239v-246h-239v246z" />
    <glyph glyph-name="divide" unicode="&#xf7;" horiz-adv-x="1368" 
d="M809 1092q0 -54 -37.5 -91.5t-91.5 -37.5t-91.5 36.5t-37.5 90.5q0 55 37.5 93t91.5 38t91.5 -37t37.5 -92zM127 778h1114v-205h-1114v205zM811 260q0 -54 -37.5 -91.5t-91.5 -37.5t-91.5 36.5t-37.5 90.5q0 55 38.5 93t90.5 38q54 0 91.5 -37.5t37.5 -91.5z" />
    <glyph glyph-name="oslash" unicode="&#xf8;" 
d="M1051 1090l129 -107l-105 -123q123 -149 123 -352q0 -149 -68.5 -273t-189.5 -196t-268 -72q-170 0 -295 76l-103 -121l-124 109l102 119q-127 149 -127 358q0 230 149.5 384.5t376.5 154.5q162 0 297 -78zM453 385l338 399q-49 52 -129 52q-101 0 -161.5 -88.5
t-60.5 -239.5q0 -69 13 -123zM870 621l-340 -400q48 -45 132 -45q221 0 221 332q0 59 -13 113z" />
    <glyph glyph-name="ugrave" unicode="&#xf9;" 
d="M180 1014h295v-692q0 -70 45.5 -116t122.5 -46q83 0 146 64.5t63 140.5v649h291v-1014h-293v147q-77 -96 -159.5 -136t-188.5 -40q-147 0 -234.5 84t-87.5 205v754zM354 1415h316l137 -299h-178z" />
    <glyph glyph-name="uacute" unicode="&#xfa;" 
d="M180 1014h295v-692q0 -70 45.5 -116t122.5 -46q83 0 146 64.5t63 140.5v649h291v-1014h-293v147q-77 -96 -159.5 -136t-188.5 -40q-147 0 -234.5 84t-87.5 205v754zM657 1415h316l-277 -299h-178z" />
    <glyph glyph-name="ucircumflex" unicode="&#xfb;" 
d="M180 1014h295v-692q0 -70 45.5 -116t122.5 -46q83 0 146 64.5t63 140.5v649h291v-1014h-293v147q-77 -96 -159.5 -136t-188.5 -40q-147 0 -234.5 84t-87.5 205v754zM535 1415h260l206 -295h-225l-117 150l-108 -150h-227z" />
    <glyph glyph-name="udieresis" unicode="&#xfc;" 
d="M180 1014h295v-692q0 -70 45.5 -116t122.5 -46q83 0 146 64.5t63 140.5v649h291v-1014h-293v147q-77 -96 -159.5 -136t-188.5 -40q-147 0 -234.5 84t-87.5 205v754zM328 1415h239v-241h-239v241zM758 1415h239v-246h-239v246z" />
    <glyph glyph-name="yacute" unicode="&#xfd;" 
d="M109 1014h299l278 -738l236 738h295l-363 -1057q-27 -79 -53 -132t-61.5 -97t-81.5 -68.5t-108.5 -37.5t-146.5 -13q-140 0 -290 33v260q117 -37 213 -37q94 0 134 27t60 92zM657 1415h316l-277 -299h-178z" />
    <glyph glyph-name="thorn" unicode="&#xfe;" 
d="M1087 905q113 -137 113 -375q0 -258 -112 -407.5t-306 -149.5q-104 0 -176 35t-147 121v-520h-293v1870h293v-594q70 85 140 121t181 36q194 0 307 -137zM457 725v-430q110 -139 219 -139q29 0 58 7.5t64 32.5t54 66q37 79 37 221q0 187 -51 282t-164 95
q-63 0 -115 -31.5t-102 -103.5z" />
    <glyph glyph-name="ydieresis" unicode="&#xff;" 
d="M109 1014h299l278 -738l236 738h295l-363 -1057q-27 -79 -53 -132t-61.5 -97t-81.5 -68.5t-108.5 -37.5t-146.5 -13q-140 0 -290 33v260q117 -37 213 -37q94 0 134 27t60 92zM328 1415h239v-241h-239v241zM758 1415h239v-246h-239v246z" />
    <glyph glyph-name="dotlessi" unicode="&#x131;" horiz-adv-x="661" 
d="M184 1014h293v-1014h-293v1014z" />
    <glyph glyph-name="Lslash" unicode="&#x141;" 
d="M227 1477h361v-473l338 286v-241l-338 -287v-467h674v-295h-1035v457l-166 -140v242l166 139v779z" />
    <glyph glyph-name="lslash" unicode="&#x142;" horiz-adv-x="661" 
d="M178 1473h291v-517l162 131v-192l-162 -135v-760h-291v510l-147 -125v197l147 125v766z" />
    <glyph glyph-name="OE" unicode="&#x152;" horiz-adv-x="2197" 
d="M1059 1477h1079l-53 -269h-588v-309h551v-268h-551v-359h614l52 -272h-1170q-11 0 -59 -4t-76 -4q-218 0 -384.5 86.5t-260.5 251t-94 385.5q0 119 22.5 226t76.5 208t135 174.5t207 117.5t284 44q18 0 110 -4t105 -4zM967 258q80 0 172 14v934h-211q-94 0 -170.5 -27.5
t-134.5 -83.5t-89.5 -149t-31.5 -217q0 -233 118 -352t347 -119z" />
    <glyph glyph-name="oe" unicode="&#x153;" horiz-adv-x="1984" 
d="M1860 422h-670q9 -256 211 -256q135 0 229 162l201 -117q-79 -123 -186.5 -180.5t-264.5 -57.5q-113 0 -197.5 30.5t-154.5 102.5q-151 -133 -373 -133q-231 0 -379.5 154t-148.5 391q0 233 151.5 378.5t389.5 145.5q207 0 362 -131q80 71 158 102t188 31
q237 0 360.5 -149t123.5 -438v-35zM1192 629v-23h375v19q0 231 -191 231q-90 0 -137 -58t-47 -169zM659 180q110 0 168 83.5t58 244.5q0 155 -58 241.5t-163 86.5q-224 0 -224 -316q0 -173 54 -256.5t165 -83.5z" />
    <glyph glyph-name="Scaron" unicode="&#x160;" horiz-adv-x="1642" 
d="M1477 1212l-226 -190q-67 118 -164.5 172.5t-240.5 54.5q-145 0 -223 -41.5t-78 -115.5q0 -72 71 -105t275 -67q153 -25 262 -60t193 -90t125.5 -136t41.5 -190q0 -230 -164.5 -360.5t-476.5 -130.5q-146 0 -254 15.5t-202 53t-164 104t-125 165.5l238 213
q62 -152 174.5 -218.5t294.5 -66.5q163 0 247 43t84 125q0 78 -82.5 122t-265.5 66q-136 17 -246.5 52.5t-195.5 91t-131.5 136.5t-46.5 181q0 72 18 137t63.5 128t115 108.5t180.5 73.5t253 28q239 0 407.5 -78.5t242.5 -220.5zM483 1878h228l108 -149l119 149h223
l-207 -295h-260z" />
    <glyph glyph-name="scaron" unicode="&#x161;" horiz-adv-x="1087" 
d="M969 772l-258 -45q-7 79 -57.5 115.5t-149.5 36.5q-63 0 -104.5 -24.5t-41.5 -61.5q0 -46 51.5 -73.5t184.5 -57.5q103 -23 175.5 -50.5t129 -67t84 -94t27.5 -126.5q0 -147 -103 -242q-120 -111 -354 -111q-108 0 -190.5 21t-137 61t-88.5 86.5t-59 108.5l233 90
q29 -103 95 -152t178 -49q77 0 123.5 31.5t46.5 81.5q0 47 -51 77.5t-181 59.5q-204 46 -305.5 126t-101.5 230q0 137 105 218t292 81q211 0 312.5 -63.5t144.5 -206.5zM205 1415h227l109 -149l118 149h224l-207 -295h-260z" />
    <glyph glyph-name="Ydieresis" unicode="&#x178;" horiz-adv-x="1642" 
d="M92 1477h383l346 -607l353 607h378l-553 -916v-561h-360v563zM487 1878h240v-242h-240v242zM918 1878h239v-246h-239v246z" />
    <glyph glyph-name="Zcaron" unicode="&#x17d;" 
d="M176 1477h1059v-185l-688 -1022h686v-270h-1145v178l698 1030h-610v269zM324 1878h227l108 -149l119 149h223l-206 -295h-260z" />
    <glyph glyph-name="zcaron" unicode="&#x17e;" horiz-adv-x="1087" 
d="M164 1014h778v-207l-438 -576h446v-231h-815v201l445 581h-416v232zM205 1415h227l109 -149l118 149h224l-207 -295h-260z" />
    <glyph glyph-name="florin" unicode="&#x192;" horiz-adv-x="1138" 
d="M1110 1473l-55 -226q-88 27 -154 27q-30 0 -50 -7t-33 -17t-23 -38t-15.5 -52t-15.5 -77h207l-37 -211h-205l-166 -944q-7 -38 -13.5 -67.5t-10 -46t-9.5 -33.5t-7.5 -21t-8.5 -18.5t-8 -17.5q-68 -132 -281 -132q-145 0 -278 39l57 222q109 -23 170 -23q60 0 81.5 30.5
t41.5 145.5l147 866h-200l37 211h200l23 127q31 177 100.5 239t237.5 64q144 0 268 -40z" />
    <glyph glyph-name="circumflex" unicode="&#x2c6;" horiz-adv-x="681" 
d="M213 1415h260l207 -295h-225l-117 150l-109 -150h-227z" />
    <glyph glyph-name="caron" unicode="&#x2c7;" horiz-adv-x="681" 
d="M2 1415h227l109 -149l119 149h223l-207 -295h-260z" />
    <glyph glyph-name="uni02C9" unicode="&#x2c9;" horiz-adv-x="681" 
d="M18 1346h646v-185h-646v185z" />
    <glyph glyph-name="breve" unicode="&#x2d8;" horiz-adv-x="681" 
d="M29 1415h137q11 -143 174 -143q162 0 174 143h137q-11 -132 -93.5 -211.5t-217.5 -79.5q-133 0 -216 78t-95 213z" />
    <glyph glyph-name="dotaccent" unicode="&#x2d9;" horiz-adv-x="681" 
d="M203 1415h276v-266h-276v266z" />
    <glyph glyph-name="ring" unicode="&#x2da;" horiz-adv-x="681" 
d="M537 1266q0 -80 -57 -137.5t-138 -57.5q-82 0 -139.5 58.5t-57.5 136.5q0 80 58 138t139 58q80 0 137.5 -57.5t57.5 -138.5zM342 1178q37 0 62.5 25.5t25.5 62.5t-25.5 63.5t-62.5 26.5t-63.5 -26.5t-26.5 -63.5t26.5 -62.5t63.5 -25.5z" />
    <glyph glyph-name="ogonek" unicode="&#x2db;" horiz-adv-x="681" 
d="M156 -49h149q-20 -78 -20 -144q0 -78 36 -118.5t105 -40.5q56 0 139 24v-137q-108 -41 -194 -41q-117 0 -184.5 63t-67.5 173q0 69 37 221z" />
    <glyph glyph-name="tilde" unicode="&#x2dc;" horiz-adv-x="681" 
d="M557 1384h129q0 -251 -184 -251q-52 0 -158 42t-151 42q-70 0 -70 -89h-127v29q0 107 48 166t134 59q49 0 105 -21.5t106.5 -43t85.5 -21.5q71 0 82 88z" />
    <glyph glyph-name="hungarumlaut" unicode="&#x2dd;" horiz-adv-x="681" 
d="M80 1419h295l-258 -299h-176zM459 1419h284l-245 -299h-181z" />
    <glyph glyph-name="uni03A9" unicode="&#x3a9;" horiz-adv-x="1212" 
d="M1124 836q0 -163 -53 -323t-149 -280v-8h229v-225h-467v164q84 74 129 235t45 375q0 220 -67.5 349.5t-182.5 129.5q-118 0 -189 -133.5t-71 -355.5q0 -203 46 -367t128 -233v-164h-467v225h228v8q-97 121 -149 274t-52 314q0 181 64.5 333t186.5 244.5t277 92.5
q116 0 213.5 -53.5t162.5 -144t101.5 -209t36.5 -248.5z" />
    <glyph glyph-name="uni03BC" unicode="&#x3bc;" horiz-adv-x="1251" 
d="M133 1047h291v-549q0 -141 52.5 -219t150.5 -78q97 0 149.5 77.5t52.5 219.5v549h291v-1047h-291v78q-75 -103 -202 -103q-63 0 -116 28.5t-87 74.5v-486h-291v1455z" />
    <glyph glyph-name="pi" unicode="&#x3c0;" horiz-adv-x="1095" 
d="M303 1108h770l-18 -242h-119v-598q0 -166 22 -268h-249q-33 67 -33 268v598h-219q-12 -231 -45.5 -485t-69.5 -381h-252q39 159 73.5 420t37.5 444q-109 0 -164 -14l-29 186q38 32 118 52t177 20z" />
    <glyph glyph-name="endash" unicode="&#x2013;" horiz-adv-x="1024" 
d="M-8 643h1042v-250h-1042v250z" />
    <glyph glyph-name="emdash" unicode="&#x2014;" horiz-adv-x="2048" 
d="M-16 643h2082v-250h-2082v250z" />
    <glyph glyph-name="quoteleft" unicode="&#x2018;" horiz-adv-x="661" 
d="M369 1477l129 -74q-41 -85 -59 -139.5t-19 -108.5h100v-297h-297v262q0 54 17.5 113t45.5 110.5t46.5 80.5t36.5 53z" />
    <glyph glyph-name="quoteright" unicode="&#x2019;" horiz-adv-x="661" 
d="M141 1477h297v-263q0 -54 -24 -135q-13 -43 -42.5 -97.5t-51 -86t-27.5 -37.5l-129 74q45 94 60 141t18 107h-101v297z" />
    <glyph glyph-name="quotesinglbase" unicode="&#x201a;" horiz-adv-x="661" 
d="M182 297h297v-262q0 -157 -145 -357l-129 74q46 96 60.5 141t17.5 107h-101v297z" />
    <glyph glyph-name="quotedblleft" unicode="&#x201c;" horiz-adv-x="1087" 
d="M827 1477l129 -74q-47 -97 -60.5 -143t-16.5 -105h100v-297h-297v262q0 155 145 357zM334 1477l129 -74q-48 -97 -61.5 -143.5t-16.5 -104.5h100v-297h-297v262q0 153 146 357z" />
    <glyph glyph-name="quotedblright" unicode="&#x201d;" horiz-adv-x="1087" 
d="M109 1477h297v-263q0 -155 -146 -356l-129 74q47 98 61 141t17 107h-100v297zM602 1477h297v-263q0 -151 -145 -356l-129 74q45 90 59.5 139t17.5 109h-100v297z" />
    <glyph glyph-name="quotedblbase" unicode="&#x201e;" horiz-adv-x="1087" 
d="M143 297h297v-262q0 -157 -145 -357l-129 74q47 98 61 141t17 107h-101v297zM649 297h297v-262q0 -157 -145 -357l-129 74q46 98 60.5 143.5t17.5 104.5h-101v297z" />
    <glyph glyph-name="dagger" unicode="&#x2020;" horiz-adv-x="980" 
d="M354 1477h279l-72 -494l365 68v-273l-363 66l82 -1186h-305l82 1186l-367 -66v273l367 -66z" />
    <glyph glyph-name="daggerdbl" unicode="&#x2021;" horiz-adv-x="980" 
d="M354 1477h271l-82 -383l368 69v-250l-366 66l53 -410l-53 -409l362 63v-250l-368 72l86 -387h-273l78 387l-360 -74v250l364 -63l-57 411l55 408l-362 -64v248l362 -67z" />
    <glyph glyph-name="bullet" unicode="&#x2022;" horiz-adv-x="716" 
d="M653 723q0 -121 -87.5 -208t-209.5 -87t-208.5 87.5t-86.5 207.5q0 121 87.5 209t207.5 88q121 0 209 -87t88 -210z" />
    <glyph glyph-name="ellipsis" unicode="&#x2026;" horiz-adv-x="1748" 
d="M139 307h301v-307h-301v307zM725 307h301v-307h-301v307zM1311 307h301v-307h-301v307z" />
    <glyph glyph-name="perthousand" unicode="&#x2030;" horiz-adv-x="2347" 
d="M1130 1513h185l-787 -1593h-206zM719 1122q0 -175 -86 -283t-230 -108q-139 0 -225 107.5t-86 283.5q0 172 86 280.5t225 108.5q143 0 229.5 -106t86.5 -283zM469 1038v179q0 60 -13.5 88t-52.5 28q-61 0 -61 -116v-179q0 -70 14.5 -101.5t46.5 -31.5q40 0 53 29.5
t13 103.5zM1552 313q0 -175 -85.5 -283t-229.5 -108q-139 0 -225 107.5t-86 283.5q0 172 86 280.5t225 108.5q143 0 229 -106t86 -283zM1303 229v179q0 60 -13.5 88t-52.5 28q-61 0 -61 -116v-179q0 -70 14.5 -101.5t46.5 -31.5q40 0 53 29.5t13 103.5zM2255 313
q0 -175 -86 -283t-230 -108q-139 0 -225 107.5t-86 283.5q0 172 86 280.5t225 108.5q143 0 229.5 -106t86.5 -283zM2005 229v179q0 60 -13.5 88t-52.5 28q-61 0 -61 -116v-179q0 -70 14.5 -101.5t46.5 -31.5q40 0 53 29.5t13 103.5z" />
    <glyph glyph-name="guilsinglleft" unicode="&#x2039;" horiz-adv-x="661" 
d="M348 1057h238l-271 -488l269 -489h-238l-268 489z" />
    <glyph glyph-name="guilsinglright" unicode="&#x203a;" horiz-adv-x="661" 
d="M78 1057h237l271 -488l-269 -489h-237l266 489z" />
    <glyph glyph-name="fraction" unicode="&#x2044;" horiz-adv-x="319" 
d="M641 1501h129l-1094 -1853h-127z" />
    <glyph glyph-name="Euro" unicode="&#x20ac;" horiz-adv-x="1351" 
d="M1247 1174l-223 -101q-51 107 -105.5 152t-140.5 45q-84 0 -139 -72.5t-84 -220.5h518l-41 -184h-495q0 -4 -1 -27.5t-1 -34.5t1 -34t1 -25h495l-41 -185h-436q26 -144 88.5 -220.5t153.5 -76.5q138 0 276 228l209 -164q-60 -124 -191.5 -205.5t-285.5 -81.5
q-218 0 -363 132.5t-198 387.5h-197l43 185h133q0 4 -1 26t-1 33t1 33.5t1 28.5h-176l43 184h156q51 243 190 379.5t332 136.5q177 0 301 -82.5t178 -236.5z" />
    <glyph glyph-name="afii61289" unicode="&#x2113;" horiz-adv-x="925" 
d="M778 1237q0 -324 -336 -707v-98q0 -244 148 -244q108 0 211 177l100 -109q-58 -136 -153 -209.5t-220 -73.5q-167 0 -253.5 102.5t-86.5 268.5q-6 -5 -39.5 -35.5t-54.5 -46.5l-59 146q85 74 151 145v553q0 225 95 364.5t241 139.5q123 0 189.5 -96.5t66.5 -276.5z
M442 1077v-291q89 123 139 246.5t50 222.5q0 78 -20 116t-68 38q-46 0 -73.5 -86t-27.5 -246z" />
    <glyph glyph-name="trademark" unicode="&#x2122;" horiz-adv-x="2048" 
d="M233 1477h664v-144h-246v-676h-166v676h-252v144zM995 1477h260l150 -566l149 566h261v-820h-158v654l-178 -654h-150l-176 654v-654h-158v820z" />
    <glyph glyph-name="Omega" unicode="&#x2126;" horiz-adv-x="1212" 
d="M1124 836q0 -163 -53 -323t-149 -280v-8h229v-225h-467v164q84 74 129 235t45 375q0 220 -67.5 349.5t-182.5 129.5q-118 0 -189 -133.5t-71 -355.5q0 -203 46 -367t128 -233v-164h-467v225h228v8q-97 121 -149 274t-52 314q0 181 64.5 333t186.5 244.5t277 92.5
q116 0 213.5 -53.5t162.5 -144t101.5 -209t36.5 -248.5z" />
    <glyph glyph-name="estimated" unicode="&#x212e;" horiz-adv-x="1837" 
d="M1763 709h-1370q-10 0 -10 -13v-409q0 -33 16 -49q38 -41 87.5 -78t115 -72t148.5 -55.5t170 -20.5q154 0 295.5 64.5t248.5 187.5h121q-118 -140 -294.5 -217.5t-372.5 -77.5q-176 0 -334.5 62t-270 165.5t-176.5 243t-65 289.5q0 158 69 300.5t184 243t270 159.5
t323 59t323 -59t270 -159.5t183.5 -243t68.5 -300.5v-20zM383 1169v-407q0 -14 10 -14h1049q10 0 10 14v420q0 13 -4.5 23.5t-30 36.5t-74.5 63q-189 141 -425 141q-255 0 -461 -174q-35 -30 -52 -50t-19.5 -28.5t-2.5 -24.5z" />
    <glyph glyph-name="partialdiff" unicode="&#x2202;" horiz-adv-x="1054" 
d="M963 862q0 -416 -133 -649t-379 -233q-89 0 -162 42t-119 112.5t-71 157.5t-25 181q0 251 113.5 405t275.5 154q77 0 142 -35.5t97 -95.5h3q2 8 2 62q0 193 -82 328.5t-201 135.5q-120 0 -229 -100l-68 217q139 115 332 115q105 0 195.5 -51t160 -148.5t109 -251
t39.5 -346.5zM477 215q53 0 97.5 60.5t73 162t38.5 228.5q-21 64 -67 102.5t-105 38.5q-76 0 -129 -102.5t-53 -245.5q0 -110 39.5 -177t105.5 -67z" />
    <glyph glyph-name="Delta" unicode="&#x2206;" horiz-adv-x="1173" 
d="M440 1497h310l370 -1327v-170h-1071v162zM467 723l-154 -500h539l-152 500q-10 34 -57.5 223t-52.5 213h-4q-3 -20 -52.5 -199.5t-66.5 -236.5z" />
    <glyph glyph-name="product" unicode="&#x220f;" horiz-adv-x="1320" 
d="M51 1470h1217v-256h-170v-1417h-264v1417h-349v-1417h-262v1417h-172v256z" />
    <glyph glyph-name="summation" unicode="&#x2211;" horiz-adv-x="1001" 
d="M57 1470h881v-231h-539v-6l361 -539l-410 -628v-7h617v-262h-920v185l420 657l-410 635v196z" />
    <glyph glyph-name="minus" unicode="&#x2212;" horiz-adv-x="1366" 
d="M125 784h1116v-215h-1116v215z" />
    <glyph glyph-name="uni2215" unicode="&#x2215;" horiz-adv-x="319" 
d="M641 1501h129l-1094 -1853h-127z" />
    <glyph glyph-name="uni2219" unicode="&#x2219;" horiz-adv-x="555" 
d="M127 721h303v-307h-303v307z" />
    <glyph glyph-name="radical" unicode="&#x221a;" horiz-adv-x="1097" 
d="M926 1774h176l-400 -2055h-208l-254 908l-138 -56l-39 158l336 135l156 -590q23 -103 41 -217l4 -4q25 206 41 285z" />
    <glyph glyph-name="infinity" unicode="&#x221e;" horiz-adv-x="1505" 
d="M760 725q96 118 175.5 164.5t174.5 46.5q132 0 217.5 -92.5t85.5 -239.5q0 -152 -90.5 -249t-224.5 -97q-101 0 -181 53.5t-159 163.5q-91 -117 -175 -167t-184 -50q-128 0 -218.5 98t-90.5 238q0 150 93.5 246t232.5 96q97 0 179 -50.5t165 -160.5zM420 406q60 0 116 37
t140 145l-60 80q-93 125 -202 125q-78 0 -126 -54.5t-48 -144.5q0 -78 52 -133t128 -55zM1102 406q68 0 115 57t47 133q0 87 -47.5 142t-129.5 55q-37 0 -74.5 -19t-72.5 -54t-56 -59.5t-48 -60.5q82 -106 136.5 -150t129.5 -44z" />
    <glyph glyph-name="integral" unicode="&#x222b;" horiz-adv-x="790" 
d="M729 1800l-27 -194q-3 1 -14.5 5.5t-23 7.5t-23.5 3q-75 0 -106 -86.5t-31 -275.5q0 -188 13 -533.5t13 -505.5q0 -347 -84 -469q-82 -119 -241 -119q-95 0 -146 31l31 203q3 -1 15 -6.5t18 -7.5t18.5 -4.5t24.5 -2.5q66 0 92.5 77.5t26.5 281.5q0 171 -13.5 523.5
t-13.5 506.5q0 322 88 453q47 71 118 103t146 32q57 0 119 -23z" />
    <glyph glyph-name="approxequal" unicode="&#x2248;" horiz-adv-x="999" 
d="M680 793q43 0 76.5 29.5t79.5 111.5l92 -80q-41 -98 -109.5 -155.5t-142.5 -57.5q-57 0 -109.5 22.5t-85.5 49t-75.5 49t-83.5 22.5q-43 0 -77.5 -28.5t-82.5 -110.5l-94 80q44 98 115 153.5t153 55.5q54 0 107.5 -22t88 -48.5t75.5 -48.5t73 -22zM680 422
q43 0 76.5 29.5t79.5 111.5l92 -80q-41 -98 -109.5 -155.5t-142.5 -57.5q-57 0 -109.5 22.5t-85.5 49.5t-75.5 49.5t-83.5 22.5q-43 0 -77.5 -29t-82.5 -111l-94 80q44 98 115 153.5t153 55.5q54 0 107.5 -22t88 -48.5t75.5 -48.5t73 -22z" />
    <glyph glyph-name="notequal" unicode="&#x2260;" horiz-adv-x="999" 
d="M539 883l86 207l118 -41l-69 -166h235v-158h-286l-107 -260h393v-156h-446l-86 -211l-121 43l70 168h-238v156h291l106 260h-397v158h451z" />
    <glyph glyph-name="lessequal" unicode="&#x2264;" horiz-adv-x="999" 
d="M903 1262v-187l-659 -338v-4l659 -340v-186l-805 442v170zM92 133h821v-160h-821v160z" />
    <glyph glyph-name="greaterequal" unicode="&#x2265;" horiz-adv-x="999" 
d="M104 1262l805 -443v-170l-805 -442v186l660 340v4l-660 338v187zM94 133h817v-160h-817v160z" />
    <glyph glyph-name="lozenge" unicode="&#x25ca;" horiz-adv-x="1095" 
d="M449 1569h217l338 -836l-357 -831h-215l-338 831zM557 1335h-8q-27 -121 -53 -188l-168 -406l176 -458q19 -54 35 -152h10q18 97 37 141l182 455l-160 420q-38 99 -51 188z" />
    </font>
</defs>
</svg>
